<svg xmlns="http://www.w3.org/2000/svg" xmlns:xlink="http://www.w3.org/1999/xlink" width="76" zoomAndPan="magnify" viewBox="0 0 56.879997 36.000001" height="48" preserveAspectRatio="xMidYMid meet" version="1.0"><defs><clipPath id="819f2444c4"><path d="M 0.710938 4.375 L 56 4.375 L 56 30.648438 L 0.710938 30.648438 Z M 0.710938 4.375 " clip-rule="nonzero"/></clipPath></defs><g clip-path="url(#819f2444c4)"><path fill="#ffffff" d="M 44.457031 29.863281 L 55.410156 18.910156 C 56.167969 18.148438 56.167969 16.898438 55.410156 16.140625 L 44.457031 5.160156 C 43.695312 4.402344 42.445312 4.402344 41.6875 5.160156 C 40.925781 5.917969 40.925781 7.167969 41.6875 7.929688 L 49.308594 15.550781 L 2.671875 15.550781 C 1.59375 15.550781 0.710938 16.433594 0.710938 17.511719 C 0.710938 18.589844 1.59375 19.472656 2.671875 19.472656 L 49.285156 19.472656 L 41.660156 27.09375 C 41.269531 27.484375 41.097656 27.976562 41.097656 28.492188 C 41.097656 29.003906 41.292969 29.496094 41.660156 29.886719 C 42.445312 30.621094 43.695312 30.621094 44.457031 29.863281 Z M 44.457031 29.863281 " fill-opacity="1" fill-rule="nonzero"/></g></svg>