<svg xmlns="http://www.w3.org/2000/svg" xmlns:xlink="http://www.w3.org/1999/xlink" width="1280" zoomAndPan="magnify" viewBox="0 0 960 959.999988" height="1280" preserveAspectRatio="xMidYMid meet" version="1.0"><path fill="#909090" d="M 500.957031 153.996094 L 140.65625 463.976562 C 139.5 464.972656 138.074219 464.207031 137.484375 462.269531 C 136.886719 460.332031 137.34375 457.953125 138.5 456.957031 L 499.925781 146.003906 C 500.628906 145.398438 501.472656 145.421875 502.160156 146.074219 L 821.585938 446.4375 C 822.722656 447.503906 823.125 449.914062 822.488281 451.8125 C 821.851562 453.710938 820.410156 454.386719 819.28125 453.320312 Z M 500.957031 153.996094 " fill-opacity="1" fill-rule="evenodd"/><path fill="#dddddd" d="M 502.152344 149.757812 L 164.15625 439.828125 C 163.910156 440.039062 163.539062 440.011719 163.328125 439.765625 C 163.117188 439.519531 163.148438 439.152344 163.390625 438.9375 L 501.789062 148.523438 C 502.015625 148.328125 502.355469 148.335938 502.574219 148.542969 L 823.1875 451.886719 C 823.421875 452.109375 823.433594 452.480469 823.210938 452.71875 C 822.988281 452.953125 822.617188 452.964844 822.382812 452.738281 Z M 502.152344 149.757812 " fill-opacity="1" fill-rule="evenodd"/><path fill="#5a5a5a" d="M 519.890625 150.734375 L 504.996094 141.449219 L 491.636719 164.785156 C 489.199219 169.046875 490.566406 174.472656 494.730469 177.070312 C 496.679688 178.28125 499.03125 178.648438 501.253906 178.089844 C 503.476562 177.53125 505.375 176.089844 506.515625 174.101562 C 511.761719 164.933594 519.890625 150.734375 519.890625 150.734375 Z M 519.890625 150.734375 " fill-opacity="1" fill-rule="evenodd"/><path fill="#5a5a5a" d="M 537.828125 150.480469 C 537.574219 150.886719 537.28125 151.28125 536.953125 151.65625 C 536.625 152.03125 536.257812 152.390625 535.859375 152.730469 C 535.457031 153.074219 535.023438 153.394531 534.558594 153.699219 C 534.089844 154.003906 533.589844 154.285156 533.0625 154.546875 C 532.53125 154.8125 531.972656 155.050781 531.386719 155.269531 C 530.796875 155.492188 530.183594 155.6875 529.542969 155.859375 C 528.902344 156.035156 528.242188 156.183594 527.554688 156.3125 C 526.871094 156.4375 526.164062 156.542969 525.441406 156.621094 C 524.714844 156.699219 523.976562 156.75 523.21875 156.78125 C 522.460938 156.8125 521.691406 156.816406 520.910156 156.796875 C 520.128906 156.773438 519.339844 156.730469 518.539062 156.660156 C 517.738281 156.59375 516.933594 156.5 516.125 156.382812 C 515.316406 156.261719 514.507812 156.121094 513.695312 155.957031 C 512.886719 155.792969 512.078125 155.605469 511.273438 155.394531 C 510.46875 155.183594 509.671875 154.949219 508.878906 154.695312 C 508.085938 154.441406 507.308594 154.164062 506.535156 153.867188 C 505.765625 153.574219 505.011719 153.257812 504.269531 152.921875 C 503.527344 152.589844 502.804688 152.238281 502.097656 151.867188 C 501.394531 151.496094 500.710938 151.113281 500.046875 150.710938 C 499.382812 150.308594 498.746094 149.894531 498.132812 149.464844 C 497.515625 149.035156 496.929688 148.59375 496.371094 148.140625 C 495.8125 147.6875 495.285156 147.226562 494.785156 146.753906 C 494.285156 146.28125 493.820312 145.804688 493.386719 145.316406 C 492.953125 144.828125 492.554688 144.335938 492.1875 143.839844 C 491.824219 143.34375 491.496094 142.84375 491.207031 142.339844 C 490.914062 141.839844 490.660156 141.335938 490.445312 140.832031 C 490.226562 140.332031 490.050781 139.832031 489.914062 139.332031 C 489.773438 138.832031 489.675781 138.339844 489.617188 137.851562 C 489.558594 137.363281 489.539062 136.878906 489.558594 136.402344 C 489.578125 135.929688 489.636719 135.464844 489.738281 135.007812 C 489.835938 134.550781 489.976562 134.105469 490.15625 133.671875 C 490.332031 133.234375 490.550781 132.816406 490.804688 132.410156 C 491.058594 132.003906 491.351562 131.609375 491.679688 131.234375 C 492.007812 130.859375 492.371094 130.5 492.773438 130.160156 C 493.171875 129.816406 493.605469 129.496094 494.074219 129.191406 C 494.542969 128.886719 495.039062 128.605469 495.570312 128.34375 C 496.101562 128.078125 496.660156 127.839844 497.246094 127.621094 C 497.835938 127.398438 498.449219 127.203125 499.089844 127.03125 C 499.726562 126.855469 500.390625 126.707031 501.074219 126.578125 C 501.761719 126.453125 502.464844 126.347656 503.191406 126.269531 C 503.914062 126.191406 504.65625 126.136719 505.414062 126.109375 C 506.171875 126.078125 506.941406 126.074219 507.722656 126.09375 C 508.503906 126.113281 509.292969 126.160156 510.09375 126.230469 C 510.890625 126.296875 511.695312 126.390625 512.503906 126.507812 C 513.3125 126.628906 514.125 126.769531 514.933594 126.933594 C 515.746094 127.097656 516.554688 127.285156 517.359375 127.496094 C 518.164062 127.707031 518.960938 127.941406 519.753906 128.195312 C 520.542969 128.449219 521.324219 128.726562 522.09375 129.023438 C 522.867188 129.316406 523.621094 129.632812 524.363281 129.96875 C 525.105469 130.300781 525.828125 130.652344 526.53125 131.023438 C 527.238281 131.394531 527.921875 131.777344 528.585938 132.179688 C 529.25 132.582031 529.886719 132.996094 530.5 133.425781 C 531.113281 133.855469 531.703125 134.296875 532.261719 134.75 C 532.820312 135.203125 533.347656 135.664062 533.847656 136.136719 C 534.347656 136.609375 534.8125 137.085938 535.246094 137.574219 C 535.679688 138.0625 536.078125 138.554688 536.441406 139.050781 C 536.808594 139.546875 537.136719 140.046875 537.425781 140.550781 C 537.71875 141.050781 537.972656 141.554688 538.1875 142.054688 C 538.402344 142.558594 538.582031 143.058594 538.71875 143.558594 C 538.859375 144.054688 538.957031 144.550781 539.015625 145.039062 C 539.074219 145.527344 539.09375 146.011719 539.074219 146.484375 C 539.054688 146.960938 538.992188 147.425781 538.894531 147.882812 C 538.792969 148.339844 538.65625 148.785156 538.476562 149.21875 C 538.300781 149.65625 538.082031 150.074219 537.828125 150.480469 Z M 537.828125 150.480469 " fill-opacity="1" fill-rule="nonzero"/><path fill="#6d6d6d" d="M 525.828125 145.867188 C 525.578125 146.269531 525.253906 146.636719 524.863281 146.96875 C 524.46875 147.304688 524.011719 147.601562 523.492188 147.859375 C 522.972656 148.117188 522.398438 148.332031 521.769531 148.503906 C 521.140625 148.675781 520.46875 148.796875 519.757812 148.875 C 519.046875 148.953125 518.308594 148.980469 517.539062 148.960938 C 516.773438 148.941406 515.992188 148.875 515.195312 148.757812 C 514.402344 148.644531 513.609375 148.480469 512.820312 148.273438 C 512.027344 148.066406 511.253906 147.816406 510.5 147.527344 C 509.742188 147.238281 509.015625 146.910156 508.324219 146.546875 C 507.632812 146.183594 506.984375 145.792969 506.378906 145.371094 C 505.777344 144.949219 505.230469 144.507812 504.742188 144.042969 C 504.25 143.578125 503.828125 143.101562 503.46875 142.613281 C 503.113281 142.128906 502.828125 141.636719 502.617188 141.140625 C 502.402344 140.648438 502.269531 140.160156 502.210938 139.679688 C 502.152344 139.199219 502.171875 138.734375 502.269531 138.289062 C 502.367188 137.839844 502.542969 137.414062 502.792969 137.015625 C 503.042969 136.617188 503.363281 136.25 503.757812 135.914062 C 504.148438 135.578125 504.605469 135.28125 505.125 135.023438 C 505.648438 134.765625 506.222656 134.550781 506.851562 134.378906 C 507.476562 134.210938 508.148438 134.085938 508.859375 134.007812 C 509.570312 133.929688 510.3125 133.902344 511.078125 133.921875 C 511.847656 133.941406 512.628906 134.011719 513.421875 134.125 C 514.21875 134.242188 515.007812 134.402344 515.800781 134.609375 C 516.589844 134.816406 517.363281 135.066406 518.121094 135.355469 C 518.875 135.648438 519.601562 135.972656 520.292969 136.335938 C 520.988281 136.699219 521.636719 137.09375 522.238281 137.511719 C 522.839844 137.933594 523.386719 138.378906 523.878906 138.839844 C 524.367188 139.304688 524.789062 139.78125 525.148438 140.269531 C 525.507812 140.757812 525.792969 141.246094 526.003906 141.742188 C 526.214844 142.234375 526.351562 142.722656 526.410156 143.203125 C 526.46875 143.683594 526.449219 144.148438 526.347656 144.597656 C 526.25 145.042969 526.078125 145.46875 525.828125 145.867188 Z M 525.828125 145.867188 " fill-opacity="1" fill-rule="nonzero"/><path fill="#ebebeb" d="M 386.003906 719.394531 L 421.839844 719.394531 L 421.839844 719.707031 L 386.003906 719.707031 Z M 386.003906 719.394531 " fill-opacity="1" fill-rule="evenodd"/><path fill="#d02424" d="M 959.917969 499.785156 C 959.917969 482.746094 953.144531 466.40625 941.097656 454.359375 C 929.050781 442.308594 912.707031 435.539062 895.671875 435.539062 C 721.023438 435.539062 238.980469 435.539062 64.332031 435.539062 C 47.292969 435.539062 30.949219 442.308594 18.902344 454.359375 C 6.855469 466.40625 0.0859375 482.746094 0.0859375 499.785156 C 0.0859375 575.378906 0.0859375 700.15625 0.0859375 775.75 C 0.0859375 792.789062 6.855469 809.132812 18.902344 821.179688 C 30.949219 833.226562 47.292969 839.996094 64.332031 839.996094 C 238.980469 839.996094 721.023438 839.996094 895.671875 839.996094 C 912.707031 839.996094 929.050781 833.226562 941.097656 821.179688 C 953.144531 809.132812 959.917969 792.789062 959.917969 775.75 C 959.917969 700.15625 959.917969 575.378906 959.917969 499.785156 Z M 959.917969 499.785156 " fill-opacity="1" fill-rule="evenodd"/><path fill="#de1d1d" d="M 924.921875 528.660156 C 924.921875 493.179688 896.15625 464.414062 860.675781 464.414062 L 99.320312 464.414062 C 63.839844 464.414062 35.074219 493.179688 35.074219 528.660156 L 35.074219 746.878906 C 35.074219 782.359375 63.839844 811.125 99.320312 811.125 L 860.675781 811.125 C 896.15625 811.125 924.921875 782.359375 924.921875 746.878906 Z M 924.921875 528.660156 " fill-opacity="1" fill-rule="evenodd"/><path fill="#b60000" d="M 362.519531 677.207031 C 362.519531 677.207031 378.035156 728.121094 426.636719 724.078125 C 427.292969 724.019531 427.945312 723.917969 428.582031 723.761719 C 479.703125 711.515625 493.152344 663.726562 476.644531 613.554688 C 470.988281 596.351562 456.257812 582.886719 438.886719 576.554688 C 421.15625 570.089844 400.96875 571.097656 385.191406 581.949219 C 366.257812 594.972656 352.132812 623.832031 362.261719 676.160156 Z M 423.496094 700.015625 C 458.777344 690.964844 464.25 656.03125 452.683594 620.871094 C 449.328125 610.664062 440.289062 602.957031 429.984375 599.199219 C 420.035156 595.574219 408.65625 595.566406 399.796875 601.65625 C 385.941406 611.1875 379.582031 633.050781 386.882812 671.203125 C 388.121094 675.261719 397.210938 701.554688 423.496094 700.015625 Z M 423.496094 700.015625 " fill-opacity="1" fill-rule="evenodd"/><path fill="#b60000" d="M 267.777344 714 C 267.558594 667.726562 266.183594 618.621094 266.28125 572.53125 L 291.777344 572.585938 C 291.691406 613.386719 292.765625 656.554688 293.160156 698.015625 C 315.382812 698.148438 338.25 697.742188 358.890625 698.523438 L 357.929688 724.003906 C 329.484375 722.929688 296.835938 724.101562 267.445312 723.023438 Z M 267.777344 714 " fill-opacity="1" fill-rule="evenodd"/><path fill="#b60000" d="M 593.523438 620.398438 C 591.9375 601.421875 582.324219 586.835938 566.65625 578.03125 C 538.09375 561.984375 502.304688 583.109375 498.972656 614.816406 C 495.449219 648.394531 520.03125 657.269531 546.210938 663.738281 C 551.769531 665.117188 557.292969 666.441406 562.167969 668.3125 C 565.929688 669.753906 569.339844 671.296875 571.34375 674.175781 C 573.136719 676.761719 573.269531 680.304688 572.371094 685.144531 C 570.332031 696.15625 562.367188 702.125 553.351562 703.386719 C 538.523438 705.46875 521.179688 695.882812 519.324219 676.082031 L 495.292969 678.339844 C 500.957031 738.730469 585.867188 744.792969 596.109375 689.539062 C 598.289062 677.769531 596.378906 669.109375 592.46875 662.445312 C 586.992188 653.105469 576.792969 647.363281 564.46875 643.617188 C 555.523438 640.90625 545.382812 639.132812 536.648438 636 C 531.535156 634.167969 526.816406 632.136719 524.402344 627.84375 C 522.90625 625.179688 522.515625 621.746094 522.980469 617.339844 C 524.566406 602.226562 541.21875 591.425781 554.835938 599.074219 C 563.4375 603.910156 568.601562 611.992188 569.472656 622.414062 Z M 593.523438 620.398438 " fill-opacity="1" fill-rule="evenodd"/><path fill="#b60000" d="M 747.542969 574.324219 C 764.609375 572.746094 784.570312 571.046875 802.03125 574.730469 C 816.320312 577.746094 829.039062 584.195312 838.335938 595.929688 C 845.082031 604.449219 849.636719 617.144531 851.117188 627.792969 C 853.433594 644.488281 853.453125 665.625 847.636719 683.367188 C 843.207031 696.890625 835.457031 708.484375 823.601562 715.863281 C 815.292969 721.03125 805.710938 723.488281 795.332031 724.410156 C 785.308594 725.300781 774.4375 724.679688 763.566406 724.710938 L 759.691406 724.75 C 758.175781 724.785156 756.664062 724.832031 755.160156 724.898438 L 755.160156 724.796875 L 741.722656 724.945312 C 741.144531 671.273438 742.015625 624.5625 741.566406 574.375 Z M 767.113281 699.199219 C 774.019531 699.273438 780.871094 699.488281 787.449219 699.269531 C 795.78125 698.992188 803.628906 698.175781 810.09375 694.15625 C 818.78125 688.746094 822.964844 679.003906 825.152344 668.585938 C 827.777344 656.109375 827.339844 642.464844 825.792969 631.304688 C 824.890625 624.824219 822.394531 616.988281 818.285156 611.804688 C 811.257812 602.925781 800.613281 599.789062 789.355469 598.601562 C 782.128906 597.839844 774.613281 597.925781 767.257812 598.347656 C 767.324219 631.707031 766.992188 664.25 767.113281 699.199219 Z M 767.113281 699.199219 " fill-opacity="1" fill-rule="evenodd"/><path fill="#b60000" d="M 129.914062 668.425781 C 122.53125 641.214844 127.75 617.765625 138.910156 600.371094 C 155.535156 574.460938 185.621094 562.191406 210.511719 568.800781 C 227.660156 573.355469 243.183594 586.441406 250.4375 611.28125 L 223.085938 619.269531 C 219.308594 606.335938 212.125 598.714844 203.195312 596.34375 C 188.96875 592.566406 172.398438 600.945312 162.894531 615.757812 C 155.449219 627.359375 152.488281 643.085938 157.492188 661.257812 L 157.667969 661.964844 C 162.414062 683.425781 174.84375 695.308594 189.050781 695.789062 C 203.492188 696.277344 217.683594 685.285156 224.941406 665.351562 L 251.71875 675.101562 C 239.3125 709.164062 212.761719 725.101562 188.089844 724.269531 C 163.242188 723.429688 138.300781 705.84375 129.914062 668.425781 Z M 129.914062 668.425781 " fill-opacity="1" fill-rule="evenodd"/><path fill="#b60000" d="M 611.070312 601.785156 L 611.042969 601.785156 L 610.511719 573.296875 C 646.171875 572.628906 678.554688 573.300781 719 573.085938 L 719.148438 601.582031 C 689.816406 601.738281 664.742188 601.421875 639.570312 601.496094 C 639.644531 610.664062 639.742188 619.726562 639.859375 628.808594 C 667.074219 628.5 683.835938 628.984375 719 628.796875 L 719.148438 657.292969 C 684.101562 657.480469 667.417969 656.996094 640.285156 657.300781 C 640.480469 669.4375 640.695312 681.832031 640.914062 694.753906 C 665.554688 694.683594 689.660156 694.992188 719 694.835938 L 719.148438 723.332031 C 678.851562 723.546875 648.46875 722.875 612.929688 723.539062 L 612.839844 718.933594 L 612.800781 718.933594 C 612.71875 713.710938 612.636719 708.585938 612.554688 703.554688 L 612.398438 695.046875 L 612.414062 695.046875 C 611.863281 662.035156 611.324219 632.5 611.070312 601.785156 Z M 611.070312 601.785156 " fill-opacity="1" fill-rule="evenodd"/><path fill="#ffffff" d="M 352.984375 667.679688 C 352.984375 667.679688 368.5 718.59375 417.101562 714.550781 C 417.757812 714.492188 418.410156 714.390625 419.050781 714.234375 C 470.171875 701.988281 483.617188 654.199219 467.109375 604.027344 C 461.453125 586.824219 446.722656 573.359375 429.351562 567.027344 C 411.621094 560.5625 391.433594 561.570312 375.65625 572.421875 C 356.722656 585.441406 342.597656 614.304688 352.730469 666.632812 Z M 413.964844 690.488281 C 449.242188 681.4375 454.714844 646.503906 443.148438 611.34375 C 439.792969 601.136719 430.753906 593.429688 420.449219 589.671875 C 410.503906 586.046875 399.121094 586.039062 390.265625 592.128906 C 376.40625 601.660156 370.046875 623.523438 377.347656 661.675781 C 378.585938 665.734375 387.679688 692.027344 413.964844 690.488281 Z M 413.964844 690.488281 " fill-opacity="1" fill-rule="evenodd"/><path fill="#ffffff" d="M 258.242188 704.472656 C 258.023438 658.199219 256.648438 609.09375 256.75 563.007812 L 282.242188 563.0625 C 282.15625 603.863281 283.230469 647.027344 283.625 688.488281 C 305.847656 688.621094 328.714844 688.214844 349.355469 688.996094 L 348.394531 714.476562 C 319.953125 713.402344 287.300781 714.574219 257.910156 713.496094 Z M 258.242188 704.472656 " fill-opacity="1" fill-rule="evenodd"/><path fill="#ffffff" d="M 583.988281 610.871094 C 582.402344 591.894531 572.789062 577.308594 557.121094 568.503906 C 528.558594 552.457031 492.769531 573.582031 489.441406 605.289062 C 485.914062 638.867188 510.496094 647.742188 536.675781 654.210938 C 542.234375 655.589844 547.757812 656.917969 552.636719 658.785156 C 556.394531 660.226562 559.804688 661.769531 561.808594 664.648438 C 563.601562 667.234375 563.734375 670.777344 562.839844 675.617188 C 560.796875 686.628906 552.832031 692.597656 543.816406 693.863281 C 528.988281 695.941406 511.644531 686.355469 509.789062 666.558594 L 485.757812 668.8125 C 491.421875 729.203125 576.332031 735.265625 586.574219 680.011719 C 588.753906 668.242188 586.84375 659.582031 582.933594 652.917969 C 577.457031 643.578125 567.261719 637.835938 554.933594 634.089844 C 545.988281 631.378906 535.847656 629.605469 527.113281 626.472656 C 522 624.640625 517.28125 622.609375 514.867188 618.316406 C 513.371094 615.652344 512.980469 612.222656 513.445312 607.8125 C 515.03125 592.699219 531.6875 581.898438 545.300781 589.546875 C 553.90625 594.382812 559.066406 602.464844 559.9375 612.886719 Z M 583.988281 610.871094 " fill-opacity="1" fill-rule="evenodd"/><path fill="#ffffff" d="M 738.011719 564.796875 C 755.074219 563.21875 775.039062 561.519531 792.496094 565.203125 C 806.785156 568.21875 819.507812 574.667969 828.800781 586.402344 C 835.546875 594.921875 840.105469 607.617188 841.582031 618.265625 C 843.898438 634.960938 843.917969 656.101562 838.105469 673.839844 C 833.671875 687.367188 825.925781 698.957031 814.066406 706.335938 C 805.761719 711.503906 796.175781 713.960938 785.796875 714.882812 C 775.773438 715.773438 764.90625 715.152344 754.03125 715.183594 L 750.15625 715.222656 C 748.644531 715.257812 747.132812 715.304688 745.625 715.371094 L 745.625 715.269531 L 732.1875 715.417969 C 731.613281 661.746094 732.480469 615.035156 732.035156 564.847656 Z M 757.578125 689.675781 C 764.484375 689.746094 771.335938 689.960938 777.914062 689.742188 C 786.246094 689.464844 794.097656 688.648438 800.5625 684.628906 C 809.246094 679.222656 813.429688 669.476562 815.617188 659.058594 C 818.242188 646.582031 817.808594 632.9375 816.261719 621.777344 C 815.355469 615.296875 812.859375 607.460938 808.753906 602.277344 C 801.726562 593.398438 791.078125 590.261719 779.820312 589.078125 C 772.59375 588.3125 765.078125 588.398438 757.726562 588.820312 C 757.792969 622.179688 757.457031 654.722656 757.578125 689.675781 Z M 757.578125 689.675781 " fill-opacity="1" fill-rule="evenodd"/><path fill="#ffffff" d="M 120.382812 658.898438 C 112.996094 631.6875 118.21875 608.238281 129.378906 590.84375 C 146 564.933594 176.089844 552.664062 200.976562 559.273438 C 218.125 563.828125 233.648438 576.914062 240.90625 601.753906 L 213.550781 609.742188 C 209.773438 596.808594 202.589844 589.1875 193.664062 586.816406 C 179.433594 583.035156 162.863281 591.417969 153.359375 606.230469 C 145.917969 617.832031 142.953125 633.558594 147.960938 651.730469 L 148.132812 652.4375 C 152.878906 673.898438 165.308594 685.78125 179.515625 686.261719 C 193.957031 686.75 208.148438 675.757812 215.410156 655.824219 L 242.183594 665.574219 C 229.777344 699.636719 203.226562 715.574219 178.554688 714.742188 C 153.707031 713.902344 128.765625 696.316406 120.382812 658.898438 Z M 120.382812 658.898438 " fill-opacity="1" fill-rule="evenodd"/><path fill="#ffffff" d="M 601.539062 592.257812 L 601.507812 592.257812 L 600.980469 563.769531 C 636.636719 563.101562 669.019531 563.773438 709.464844 563.558594 L 709.617188 592.054688 C 680.28125 592.210938 655.207031 591.894531 630.035156 591.96875 C 630.109375 601.136719 630.207031 610.199219 630.328125 619.28125 C 657.542969 618.972656 674.300781 619.457031 709.464844 619.269531 L 709.617188 647.765625 C 674.570312 647.949219 657.886719 647.46875 630.753906 647.773438 C 630.945312 659.910156 631.164062 672.304688 631.378906 685.226562 C 656.019531 685.15625 680.125 685.464844 709.464844 685.308594 L 709.617188 713.804688 C 669.320312 714.019531 638.933594 713.347656 603.394531 714.011719 L 603.304688 709.40625 L 603.269531 709.40625 C 603.1875 704.183594 603.105469 699.058594 603.023438 694.027344 L 602.867188 685.519531 L 602.878906 685.519531 C 602.328125 652.507812 601.792969 622.972656 601.539062 592.257812 Z M 601.539062 592.257812 " fill-opacity="1" fill-rule="evenodd"/></svg>