<svg xmlns="http://www.w3.org/2000/svg" xmlns:xlink="http://www.w3.org/1999/xlink" width="1280" zoomAndPan="magnify" viewBox="0 0 960 959.999988" height="1280" preserveAspectRatio="xMidYMid meet" version="1.0"><defs><clipPath id="31495425e5"><path d="M 55 65.988281 L 905.328125 65.988281 L 905.328125 893.988281 L 55 893.988281 Z M 55 65.988281 " clip-rule="nonzero"/></clipPath></defs><g clip-path="url(#31495425e5)"><path fill="#a9cce7" d="M 752.730469 356.007812 C 757.8125 344.789062 760.652344 332.320312 760.652344 319.199219 C 760.652344 269.90625 720.683594 229.949219 671.378906 229.949219 C 659.148438 229.949219 647.492188 232.410156 636.878906 236.863281 C 586.777344 135.613281 482.417969 65.988281 361.785156 65.988281 C 192.382812 65.988281 55.058594 203.289062 55.058594 372.65625 C 55.058594 465.191406 96.054688 548.15625 160.878906 604.382812 C 144.554688 629.355469 135.066406 659.203125 135.066406 691.265625 C 135.066406 779.101562 206.285156 850.300781 294.136719 850.300781 C 339.296875 850.300781 380.058594 831.488281 409.011719 801.277344 C 461.207031 858.265625 536.238281 894.007812 619.617188 894.007812 C 777.285156 894.007812 905.105469 766.214844 905.105469 608.578125 C 905.105469 499.003906 843.34375 403.847656 752.730469 356.007812 " fill-opacity="1" fill-rule="nonzero"/></g><path fill="#e5649a" d="M 363.535156 495.566406 L 437.417969 479.230469 L 447.667969 524.59375 L 373.710938 542.21875 L 363.535156 495.566406 " fill-opacity="1" fill-rule="nonzero"/><path fill="#db4a87" d="M 385.757812 490.734375 C 385.632812 490.328125 382.757812 480.679688 387.015625 473.683594 C 389.101562 470.253906 392.523438 468.085938 397.183594 467.230469 C 402.003906 466.347656 406.152344 467.148438 409.511719 469.617188 C 415.949219 474.339844 417.136719 483.417969 417.183594 483.804688 L 415.160156 484.054688 C 415.152344 483.96875 414.019531 475.445312 408.296875 471.253906 C 405.410156 469.136719 401.792969 468.457031 397.550781 469.234375 C 393.488281 469.980469 390.53125 471.832031 388.761719 474.734375 C 384.980469 480.941406 387.679688 490.050781 387.707031 490.140625 L 385.757812 490.734375 " fill-opacity="1" fill-rule="nonzero"/><path fill="#db4a87" d="M 363.535156 495.566406 L 405.5 510.714844 L 437.417969 479.230469 Z M 363.535156 495.566406 " fill-opacity="1" fill-rule="nonzero"/><path fill="#db4a87" d="M 363.535156 495.566406 L 366.8125 537.21875 L 373.710938 542.21875 Z M 363.535156 495.566406 " fill-opacity="1" fill-rule="nonzero"/><path fill="#3f327a" d="M 409.085938 511.292969 C 408.769531 513.269531 406.902344 514.617188 404.921875 514.300781 C 402.941406 513.980469 401.59375 512.117188 401.914062 510.136719 C 402.230469 508.160156 404.097656 506.808594 406.078125 507.128906 C 408.058594 507.449219 409.402344 509.3125 409.085938 511.292969 " fill-opacity="1" fill-rule="nonzero"/><path fill="#ffd4cd" d="M 304.113281 400.085938 C 303.753906 400.023438 303.421875 399.816406 303.210938 399.488281 L 195.167969 229.683594 C 194.777344 229.074219 194.960938 228.261719 195.570312 227.867188 C 196.1875 227.476562 196.996094 227.660156 197.386719 228.273438 L 305.433594 398.078125 C 305.820312 398.691406 305.640625 399.503906 305.027344 399.894531 C 304.746094 400.074219 304.417969 400.132812 304.113281 400.085938 " fill-opacity="1" fill-rule="nonzero"/><path fill="#ffd4cd" d="M 335.820312 405.183594 C 335.46875 405.128906 335.144531 404.933594 334.933594 404.613281 C 334.53125 404.003906 334.699219 403.191406 335.304688 402.789062 L 520.984375 280.261719 C 521.59375 279.863281 522.410156 280.027344 522.808594 280.636719 C 523.207031 281.242188 523.042969 282.058594 522.433594 282.457031 L 336.753906 404.984375 C 336.46875 405.175781 336.136719 405.238281 335.820312 405.183594 " fill-opacity="1" fill-rule="nonzero"/><path fill="#ffc0b5" d="M 385.492188 96.421875 C 374.941406 94.722656 364.785156 93.9375 355.019531 93.929688 C 386.21875 108.109375 415.949219 125.347656 440.121094 151.121094 C 450.179688 162.050781 455.425781 178.671875 447.554688 191.789062 C 439.246094 205.78125 425.25 213.214844 411.253906 220.214844 C 399.445312 226.769531 386.761719 229.828125 373.640625 232.019531 C 349.300781 236.417969 325.355469 239.378906 301.589844 241.457031 L 551.226562 281.636719 C 551.226562 281.636719 530.167969 119.707031 385.492188 96.421875 " fill-opacity="1" fill-rule="nonzero"/><path fill="#ffd4cd" d="M 411.257812 220.210938 C 425.25 213.214844 439.246094 205.777344 447.558594 191.785156 C 455.429688 178.667969 450.179688 162.050781 440.121094 151.121094 C 415.953125 125.34375 386.21875 108.105469 355.019531 93.929688 C 230.871094 93.820312 169.996094 220.273438 169.996094 220.273438 L 301.589844 241.457031 C 325.355469 239.378906 349.300781 236.414062 373.644531 232.015625 C 386.761719 229.828125 399.445312 226.769531 411.257812 220.210938 " fill-opacity="1" fill-rule="nonzero"/><path fill="#ff8299" d="M 394.578125 98.101562 C 391.605469 97.480469 388.578125 96.917969 385.492188 96.421875 C 379.851562 95.515625 374.320312 94.863281 368.902344 94.457031 C 367.75 95.753906 366.527344 97.171875 365.25 98.722656 C 377.863281 104.824219 390.148438 111.539062 401.835938 119.246094 C 399.65625 112.371094 397.246094 105.320312 394.578125 98.101562 " fill-opacity="1" fill-rule="nonzero"/><path fill="#ff8299" d="M 373.640625 232.015625 C 353.238281 235.703125 333.113281 238.390625 313.136719 240.382812 C 312.996094 241.332031 312.855469 242.285156 312.722656 243.25 L 419.421875 260.421875 C 420.601562 248.921875 421.277344 233.828125 420.246094 215.566406 C 417.285156 217.175781 414.269531 218.703125 411.253906 220.210938 C 399.445312 226.769531 386.761719 229.832031 373.640625 232.015625 " fill-opacity="1" fill-rule="nonzero"/><path fill="#ff96a9" d="M 365.25 98.726562 C 349.515625 117.863281 325.285156 157.207031 313.132812 240.382812 C 333.113281 238.386719 353.238281 235.707031 373.640625 232.023438 C 386.761719 229.832031 399.445312 226.769531 411.253906 220.214844 C 414.269531 218.707031 417.285156 217.179688 420.242188 215.570312 C 418.769531 189.515625 413.804688 157.007812 401.835938 119.246094 C 390.148438 111.542969 377.863281 104.828125 365.25 98.726562 " fill-opacity="1" fill-rule="nonzero"/><path fill="#ff8299" d="M 434.925781 111.425781 C 453.378906 137.738281 494.015625 203.207031 496.78125 272.875 L 551.226562 281.636719 C 551.226562 281.636719 535.183594 158.296875 434.925781 111.425781 " fill-opacity="1" fill-rule="nonzero"/><path fill="#ff96a9" d="M 237.167969 231.09375 C 237.304688 230.300781 237.433594 229.507812 237.546875 228.683594 C 244.945312 174.988281 308.859375 118.746094 339.480469 94.589844 C 225.789062 104.378906 169.992188 220.277344 169.992188 220.277344 L 237.167969 231.09375 " fill-opacity="1" fill-rule="nonzero"/><path fill="#e89c90" d="M 551.222656 281.640625 C 549.683594 291.207031 463.09375 285.230469 357.820312 268.28125 C 252.546875 251.335938 168.453125 229.84375 169.996094 220.277344 C 171.535156 210.707031 258.125 216.6875 363.398438 233.632812 C 468.671875 250.578125 552.765625 272.070312 551.222656 281.640625 " fill-opacity="1" fill-rule="nonzero"/><path fill="#ffd4cd" d="M 319.15625 392.007812 C 318.847656 391.953125 318.558594 391.796875 318.351562 391.535156 L 262.957031 321.609375 L 245.136719 213.710938 C 245.023438 213.019531 245.496094 212.359375 246.195312 212.246094 C 246.894531 212.128906 247.554688 212.601562 247.667969 213.300781 L 265.378906 320.546875 L 320.363281 389.953125 C 320.800781 390.503906 320.707031 391.3125 320.152344 391.746094 C 319.859375 391.980469 319.496094 392.058594 319.15625 392.007812 " fill-opacity="1" fill-rule="nonzero"/><path fill="#ffd4cd" d="M 336.566406 399.597656 C 336.324219 399.558594 336.09375 399.445312 335.90625 399.261719 C 335.433594 398.789062 335.429688 398.027344 335.902344 397.550781 L 479.792969 252.691406 C 480.265625 252.222656 481.03125 252.214844 481.503906 252.6875 C 481.976562 253.160156 481.980469 253.925781 481.507812 254.398438 L 337.617188 399.253906 C 337.332031 399.542969 336.9375 399.65625 336.566406 399.597656 " fill-opacity="1" fill-rule="nonzero"/><path fill="#ffd4cd" d="M 324.929688 392.933594 C 324.886719 392.925781 324.839844 392.917969 324.796875 392.902344 C 324.234375 392.730469 323.921875 392.097656 324.09375 391.492188 L 370.195312 231.730469 C 370.371094 231.125 370.96875 230.777344 371.53125 230.949219 C 372.089844 231.125 372.40625 231.753906 372.230469 232.359375 L 326.128906 392.121094 C 325.96875 392.679688 325.449219 393.015625 324.929688 392.933594 " fill-opacity="1" fill-rule="nonzero"/><path fill="#ed7e94" d="M 300.765625 350.734375 L 288 358.324219 C 288 358.324219 293.503906 358.25 296.332031 362.792969 C 298.558594 359.371094 300.328125 355.6875 301.460938 351.785156 L 300.765625 350.734375 " fill-opacity="1" fill-rule="nonzero"/><path fill="#ff96a9" d="M 287.609375 347.347656 C 282.65625 345.859375 277.675781 348.453125 272.875 350.304688 L 276.476562 358.242188 L 279.242188 357.546875 L 285.394531 364.242188 C 285.394531 364.242188 288.636719 363.210938 292.269531 360.742188 C 293.546875 355.011719 293.539062 348.863281 287.609375 347.347656 " fill-opacity="1" fill-rule="nonzero"/><path fill="#ed7e94" d="M 291.292969 328.40625 L 271.503906 347.292969 L 272.875 350.304688 C 277.675781 348.453125 282.65625 345.859375 287.609375 347.347656 C 293.539062 348.863281 293.546875 355.011719 292.269531 360.742188 C 295.4375 358.582031 298.902344 355.339844 300.765625 350.734375 C 304.769531 340.847656 291.292969 328.40625 291.292969 328.40625 " fill-opacity="1" fill-rule="nonzero"/><path fill="#3f327a" d="M 291.523438 340.363281 C 291.523438 340.363281 273.757812 352.984375 253.492188 352.765625 C 253.492188 352.765625 270.472656 332.410156 298.851562 324.800781 C 298.851562 324.800781 306.5 337.191406 300.765625 350.734375 L 294.15625 342.949219 C 294.15625 342.949219 297.972656 340.519531 294.578125 337.941406 C 291.1875 335.363281 291.523438 340.363281 291.523438 340.363281 " fill-opacity="1" fill-rule="nonzero"/><path fill="#ff96a9" d="M 267.207031 322.75 C 272.386719 319.820312 275.570312 313.203125 274.808594 307.066406 C 273.449219 305.558594 271.316406 304.363281 268.183594 303.691406 C 262.539062 302.472656 255.496094 308.0625 248.554688 316.1875 C 248.949219 319.671875 250.765625 323.070312 253.363281 325.628906 C 254.921875 322.210938 256.652344 318.871094 258.457031 315.632812 C 258.542969 319.832031 262.589844 325.433594 267.207031 322.75 " fill-opacity="1" fill-rule="nonzero"/><path fill="#ed7e94" d="M 274.808594 307.066406 C 275.570312 313.203125 272.386719 319.820312 267.207031 322.75 C 262.589844 325.433594 258.542969 319.832031 258.457031 315.632812 C 256.652344 318.871094 254.921875 322.210938 253.363281 325.628906 C 253.859375 326.125 254.382812 326.585938 254.933594 327.011719 C 256.089844 325.027344 257.285156 323.222656 258.488281 321.726562 C 258.488281 321.726562 258.339844 328.171875 265.257812 327.765625 C 270.9375 327.429688 281.03125 313.964844 274.808594 307.066406 " fill-opacity="1" fill-rule="nonzero"/><path fill="#e6e6e6" d="M 252.671875 331.179688 C 253.402344 329.734375 254.160156 328.328125 254.933594 327.011719 C 254.382812 326.585938 253.859375 326.125 253.363281 325.628906 C 252.6875 327.109375 252.046875 328.601562 251.441406 330.113281 C 251.835938 330.480469 252.246094 330.839844 252.671875 331.179688 " fill-opacity="1" fill-rule="nonzero"/><path fill="#f2f2f2" d="M 248.554688 316.1875 C 247.480469 317.449219 246.40625 318.769531 245.339844 320.132812 C 246.476562 323.898438 248.578125 327.414062 251.441406 330.113281 C 252.046875 328.601562 252.6875 327.109375 253.363281 325.628906 C 250.765625 323.070312 248.949219 319.671875 248.554688 316.1875 " fill-opacity="1" fill-rule="nonzero"/><path fill="#f2f2f2" d="M 388.613281 451.058594 L 390.300781 454.761719 C 392.730469 453.195312 395.542969 452.058594 398.417969 451.613281 C 398.039062 450.046875 397.703125 448.476562 397.398438 446.898438 C 394.265625 447.742188 391.253906 449.289062 388.613281 451.058594 " fill-opacity="1" fill-rule="nonzero"/><path fill="#e6e6e6" d="M 400.535156 446.304688 C 399.484375 446.417969 398.4375 446.621094 397.398438 446.898438 C 397.703125 448.476562 398.039062 450.046875 398.417969 451.613281 C 399.453125 451.453125 400.5 451.382812 401.539062 451.417969 C 401.257812 449.921875 400.921875 448.195312 400.535156 446.304688 " fill-opacity="1" fill-rule="nonzero"/><path fill="#f2f2f2" d="M 251.441406 330.113281 C 249.824219 334.152344 248.492188 338.292969 247.585938 342.507812 C 249.054688 338.871094 250.789062 334.882812 252.671875 331.179688 C 252.246094 330.839844 251.835938 330.480469 251.441406 330.113281 " fill-opacity="1" fill-rule="nonzero"/><path fill="#f2f2f2" d="M 226.554688 348.996094 C 222.460938 356.222656 219.878906 361.371094 219.878906 361.371094 C 219.878906 361.371094 261.488281 389 287.957031 387.742188 C 293.449219 387.480469 298.484375 387.15625 303.015625 386.804688 C 275.324219 382.308594 247.101562 376.332031 225.269531 358.625 C 225.441406 355.339844 225.898438 352.140625 226.554688 348.996094 " fill-opacity="1" fill-rule="nonzero"/><path fill="#f2f2f2" d="M 337.480469 382.777344 C 340.40625 386.289062 342.941406 390.136719 345 394.210938 L 371.257812 412.949219 L 378.132812 428.046875 C 376.96875 421.972656 375.425781 416.222656 372.054688 411.558594 C 362.964844 399.4375 348.351562 393.277344 337.480469 382.777344 " fill-opacity="1" fill-rule="nonzero"/><path fill="#ffffff" d="M 397.398438 446.898438 C 395.324219 436.113281 394.574219 425.097656 389.433594 414.734375 C 379.558594 394.839844 362.34375 383.300781 344.984375 372.300781 C 338.074219 368.234375 333.140625 365.585938 333.140625 365.585938 L 309.84375 364.5 L 297.96875 369.691406 L 285.925781 371.175781 C 285.925781 371.175781 255.140625 364.578125 242.953125 355.195312 C 242.953125 355.195312 244.777344 349.488281 247.585938 342.507812 C 248.492188 338.292969 249.824219 334.152344 251.441406 330.113281 C 248.578125 327.414062 246.476562 323.898438 245.339844 320.132812 C 238.15625 329.335938 231.328125 340.574219 226.554688 348.996094 C 225.898438 352.140625 225.441406 355.339844 225.269531 358.625 C 247.101562 376.332031 275.324219 382.308594 303.015625 386.804688 C 320.324219 385.453125 330.285156 383.714844 330.285156 383.714844 L 345 394.210938 C 342.941406 390.136719 340.40625 386.289062 337.480469 382.777344 C 348.351562 393.277344 362.964844 399.4375 372.054688 411.558594 C 375.425781 416.222656 376.96875 421.972656 378.132812 428.046875 L 388.613281 451.058594 C 391.253906 449.289062 394.265625 447.742188 397.398438 446.898438 " fill-opacity="1" fill-rule="nonzero"/><path fill="#f2f2f2" d="M 385.988281 403.019531 C 379.171875 393.386719 358.363281 380.179688 344.984375 372.300781 C 362.34375 383.300781 379.558594 394.839844 389.433594 414.734375 C 394.574219 425.097656 395.324219 436.113281 397.398438 446.898438 C 398.4375 446.621094 399.484375 446.417969 400.535156 446.304688 C 397.894531 433.402344 392.832031 412.6875 385.988281 403.019531 " fill-opacity="1" fill-rule="nonzero"/><path fill="#ff96a9" d="M 404.050781 477.597656 C 407.316406 476.222656 409.519531 472.011719 408.261719 468.003906 C 406.945312 464.363281 401.929688 462.414062 400.863281 459.578125 C 399.851562 456.957031 399.066406 454.296875 398.417969 451.613281 C 395.542969 452.058594 392.730469 453.195312 390.300781 454.761719 L 392.019531 458.539062 C 392.019531 458.539062 385.746094 467.675781 386.730469 474.175781 C 388.199219 471.777344 389.824219 470.292969 391.675781 470.152344 C 391.675781 470.152344 391.207031 472.667969 391.507812 475.382812 C 395.171875 478.101562 399.742188 479.382812 404.050781 477.597656 " fill-opacity="1" fill-rule="nonzero"/><path fill="#ed7e94" d="M 402.601562 457.449219 C 402.601562 457.449219 402.234375 455.132812 401.539062 451.417969 C 400.5 451.382812 399.453125 451.453125 398.417969 451.613281 C 399.066406 454.296875 399.851562 456.957031 400.863281 459.578125 C 401.929688 462.414062 406.945312 464.363281 408.261719 468.003906 C 409.519531 472.011719 407.316406 476.222656 404.050781 477.597656 C 399.742188 479.382812 395.171875 478.101562 391.507812 475.382812 C 391.996094 479.769531 394.496094 484.671875 404.25 480.296875 C 413.824219 476 411.613281 462.957031 402.601562 457.449219 " fill-opacity="1" fill-rule="nonzero"/><path fill="#3f327a" d="M 329.300781 441.195312 C 325.242188 438.65625 321.632812 437.058594 321.632812 437.058594 C 321.632812 437.058594 279.765625 414.96875 242.542969 409.738281 L 200.882812 507.695312 C 200.882812 507.695312 201.003906 507.59375 201.222656 507.40625 C 221.265625 482.738281 238.21875 455.183594 250.289062 425.449219 C 272.207031 443.601562 301.636719 446.152344 329.300781 441.195312 " fill-opacity="1" fill-rule="nonzero"/><path fill="#322666" d="M 329.300781 441.195312 C 301.636719 446.152344 272.207031 443.601562 250.289062 425.449219 C 238.21875 455.183594 221.265625 482.738281 201.222656 507.40625 C 205.523438 503.757812 249.734375 465.753906 258.457031 438.5625 C 258.457031 438.5625 311.042969 473.664062 332.980469 462.734375 C 347.691406 455.402344 337.566406 446.355469 329.300781 441.195312 " fill-opacity="1" fill-rule="nonzero"/><path fill="#3f327a" d="M 330.792969 481.03125 C 342.210938 467.199219 347.101562 450.972656 349.792969 434.277344 C 340.714844 432.855469 326.160156 431.589844 321.632812 437.058594 C 314.890625 445.203125 321.617188 454.65625 321.617188 454.65625 C 307.824219 464.121094 275.539062 506.605469 275.539062 506.605469 L 329.582031 603.21875 C 322.511719 570.242188 310.925781 538.257812 296.03125 507.785156 C 309.589844 501.59375 321.28125 492.820312 330.792969 481.03125 " fill-opacity="1" fill-rule="nonzero"/><path fill="#322666" d="M 304.757812 510.332031 C 379.726562 458.460938 357.378906 435.707031 357.378906 435.707031 C 357.378906 435.707031 354.242188 434.972656 349.792969 434.277344 C 347.101562 450.972656 342.210938 467.199219 330.792969 481.03125 C 321.28125 492.820312 309.589844 501.59375 296.03125 507.785156 C 310.925781 538.257812 322.511719 570.242188 329.582031 603.21875 L 330.28125 604.46875 C 323.523438 536.023438 304.757812 510.332031 304.757812 510.332031 " fill-opacity="1" fill-rule="nonzero"/><path fill="#ffffff" d="M 338 379.554688 L 279.296875 378.484375 C 279.296875 378.484375 279.804688 395.820312 295.214844 404.136719 C 309.890625 412.058594 320.609375 421.648438 321.558594 435.03125 C 322.003906 435.554688 322.472656 436.058594 322.960938 436.539062 C 325.894531 438.285156 329.253906 439.183594 332.660156 438.707031 C 340.5 437.304688 349.007812 434.105469 350.382812 425.574219 C 352.832031 410.367188 347.367188 394.644531 337.480469 382.777344 C 341.230469 386.402344 345.425781 389.507812 349.6875 392.519531 C 346.777344 388.023438 342.96875 383.621094 338 379.554688 " fill-opacity="1" fill-rule="nonzero"/><path fill="#f2f2f2" d="M 350.382812 425.574219 C 349.007812 434.105469 340.5 437.304688 332.660156 438.707031 C 329.253906 439.183594 325.894531 438.285156 322.960938 436.539062 C 327.269531 440.792969 333.121094 443.332031 339.230469 442.808594 C 346.105469 441.988281 352.566406 438.972656 357.660156 434.375 C 358.621094 429.257812 361.136719 410.199219 349.6875 392.519531 C 345.425781 389.507812 341.230469 386.402344 337.480469 382.777344 C 347.367188 394.644531 352.832031 410.367188 350.382812 425.574219 " fill-opacity="1" fill-rule="nonzero"/><path fill="#322666" d="M 339.230469 442.808594 C 332.429688 443.390625 325.941406 440.179688 321.558594 435.03125 C 321.605469 435.699219 321.636719 436.375 321.632812 437.058594 C 321.632812 437.058594 338.464844 457.023438 357.378906 435.707031 C 357.378906 435.707031 357.496094 435.238281 357.660156 434.375 C 352.566406 438.972656 346.105469 441.988281 339.230469 442.808594 " fill-opacity="1" fill-rule="nonzero"/><path fill="#322666" d="M 329.34375 595.867188 L 348.019531 602.164062 L 286.023438 636.144531 Z M 329.34375 595.867188 " fill-opacity="1" fill-rule="nonzero"/><path fill="#322666" d="M 205.671875 503.53125 L 205.53125 521.382812 L 156.667969 474.953125 Z M 205.671875 503.53125 " fill-opacity="1" fill-rule="nonzero"/><path fill="#ed7e94" d="M 287.925781 361.332031 C 287.816406 362.027344 286.929688 362.460938 285.945312 362.304688 C 284.964844 362.148438 284.257812 361.449219 284.371094 360.761719 C 284.480469 360.066406 285.371094 359.632812 286.351562 359.789062 C 287.332031 359.949219 288.039062 360.636719 287.925781 361.332031 " fill-opacity="1" fill-rule="nonzero"/><path fill="#ff96a9" d="M 301.460938 351.785156 C 300.328125 355.6875 298.558594 359.371094 296.332031 362.792969 C 297.347656 364.425781 298.023438 366.652344 297.96875 369.691406 L 301.859375 380.976562 L 309.84375 364.5 L 301.460938 351.785156 " fill-opacity="1" fill-rule="nonzero"/><path fill="#f2f2f2" d="M 295.917969 371.773438 L 298.742188 390.625 L 302.019531 381.953125 L 308.667969 390.316406 L 312.414062 367.058594 L 308.023438 387.234375 L 301.859375 380.976562 L 299.453125 386.214844 L 295.917969 371.773438 " fill-opacity="1" fill-rule="nonzero"/><path fill="#e5649a" d="M 302.019531 381.953125 L 300.355469 386.367188 L 303.269531 391.132812 L 305.277344 386.046875 L 302.019531 381.953125 " fill-opacity="1" fill-rule="nonzero"/><path fill="#db4a87" d="M 321.390625 411.773438 C 341.34375 421.613281 363.1875 417.910156 383.769531 412.46875 L 369.277344 400.929688 C 369.277344 400.929688 364.308594 406.976562 341.363281 408.800781 C 318.421875 410.628906 302.59375 387.589844 302.59375 387.589844 C 302.589844 387.636719 302.585938 387.6875 302.585938 387.734375 C 304.902344 397.96875 311.976562 407.105469 321.390625 411.773438 " fill-opacity="1" fill-rule="nonzero"/><path fill="#e5649a" d="M 321.390625 411.773438 C 311.976562 407.105469 304.902344 397.96875 302.585938 387.734375 C 299.535156 436.210938 369.335938 428.71875 369.335938 428.71875 L 383.785156 412.480469 L 383.769531 412.46875 C 363.1875 417.910156 341.34375 421.613281 321.390625 411.773438 " fill-opacity="1" fill-rule="nonzero"/><path fill="#f2f2f2" d="M 323.164062 397.21875 C 322.917969 397.179688 322.699219 397.015625 322.59375 396.773438 C 322.429688 396.386719 322.605469 395.949219 322.984375 395.785156 L 336.53125 389.972656 C 336.910156 389.8125 337.355469 389.984375 337.515625 390.367188 C 337.679688 390.75 337.503906 391.191406 337.125 391.351562 L 323.578125 397.164062 C 323.445312 397.222656 323.300781 397.242188 323.164062 397.21875 " fill-opacity="1" fill-rule="nonzero"/><path fill="#f2f2f2" d="M 322.664062 425.605469 C 322.832031 426.1875 322.742188 426.726562 322.457031 426.808594 C 322.175781 426.890625 321.808594 426.484375 321.640625 425.902344 C 321.472656 425.320312 321.566406 424.78125 321.847656 424.699219 C 322.128906 424.617188 322.496094 425.023438 322.664062 425.605469 " fill-opacity="1" fill-rule="nonzero"/><path fill="#ffffff" d="M 400.046875 449.34375 C 399.96875 449.820312 399.519531 450.144531 399.042969 450.070312 C 398.566406 449.992188 398.246094 449.542969 398.320312 449.066406 C 398.398438 448.589844 398.847656 448.265625 399.324219 448.34375 C 399.800781 448.421875 400.125 448.867188 400.046875 449.34375 " fill-opacity="1" fill-rule="nonzero"/><path fill="#ffffff" d="M 253.933594 328.101562 C 253.871094 328.480469 253.511719 328.738281 253.132812 328.675781 C 252.75 328.617188 252.492188 328.257812 252.554688 327.878906 C 252.613281 327.5 252.972656 327.238281 253.355469 327.300781 C 253.734375 327.363281 253.992188 327.722656 253.933594 328.101562 " fill-opacity="1" fill-rule="nonzero"/><path fill="#ffd4cd" d="M 626.039062 686.859375 C 625.640625 686.917969 625.222656 686.816406 624.890625 686.535156 L 454.164062 544.023438 C 453.550781 543.507812 453.464844 542.59375 453.980469 541.976562 C 454.496094 541.359375 455.414062 541.277344 456.027344 541.792969 L 626.753906 684.308594 C 627.371094 684.820312 627.453125 685.738281 626.9375 686.355469 C 626.699219 686.636719 626.375 686.808594 626.039062 686.859375 " fill-opacity="1" fill-rule="nonzero"/><path fill="#ffd4cd" d="M 661.128906 681.597656 C 660.742188 681.65625 660.332031 681.554688 660 681.292969 C 659.375 680.789062 659.277344 679.871094 659.785156 679.25 L 814.136719 487.972656 C 814.644531 487.347656 815.558594 487.25 816.183594 487.753906 C 816.804688 488.257812 816.902344 489.171875 816.402344 489.796875 L 662.042969 681.074219 C 661.808594 681.367188 661.476562 681.542969 661.128906 681.597656 " fill-opacity="1" fill-rule="nonzero"/><path fill="#ffdd85" d="M 565.644531 392.058594 C 558.644531 403.867188 557.769531 416.984375 560.394531 430.976562 C 564.328125 455.460938 586.199219 468.144531 608.503906 473.828125 C 681.050781 491.625 751.785156 483.121094 821.117188 467.324219 C 798.058594 429.195312 729.476562 337.355469 612.070312 354.964844 C 606.507812 355.796875 601.128906 356.839844 595.917969 358.0625 C 584.410156 367.871094 573.5 378.195312 565.644531 392.058594 " fill-opacity="1" fill-rule="nonzero"/><path fill="#f7ca51" d="M 608.503906 473.828125 C 586.199219 468.144531 564.328125 455.460938 560.394531 430.976562 C 557.769531 416.984375 558.644531 403.867188 565.644531 392.058594 C 573.5 378.195312 584.410156 367.871094 595.917969 358.0625 C 462.933594 389.25 441.460938 541.570312 441.460938 541.570312 L 829.9375 483.304688 C 829.9375 483.304688 827.015625 477.070312 821.117188 467.324219 C 751.785156 483.121094 681.050781 491.625 608.503906 473.828125 " fill-opacity="1" fill-rule="nonzero"/><path fill="#6fd189" d="M 595.378906 358.183594 C 595.300781 358.367188 595.21875 358.550781 595.136719 358.734375 C 595.398438 358.507812 595.65625 358.285156 595.917969 358.0625 C 595.738281 358.105469 595.558594 358.140625 595.378906 358.183594 " fill-opacity="1" fill-rule="nonzero"/><path fill="#60c47b" d="M 608.503906 473.828125 C 598.496094 471.277344 588.574219 467.316406 580.320312 461.511719 C 581.136719 478.546875 583.175781 497.867188 586.894531 519.757812 L 695.628906 503.449219 C 694.417969 497.6875 692.8125 491.09375 690.675781 483.761719 C 663.535156 483.566406 636.152344 480.609375 608.503906 473.828125 " fill-opacity="1" fill-rule="nonzero"/><path fill="#6fd189" d="M 690.675781 483.761719 C 681.347656 451.75 661.898438 405.71875 621.390625 353.789062 C 618.316406 354.105469 615.210938 354.492188 612.070312 354.964844 C 606.507812 355.796875 601.128906 356.839844 595.917969 358.0625 C 595.65625 358.285156 595.398438 358.507812 595.136719 358.734375 C 587.765625 375.507812 577.695312 406.648438 580.320312 461.511719 C 588.574219 467.316406 598.496094 471.277344 608.503906 473.828125 C 636.152344 480.609375 663.535156 483.566406 690.675781 483.761719 " fill-opacity="1" fill-rule="nonzero"/><path fill="#6fd189" d="M 664.617188 354.246094 C 688.765625 372.628906 741.859375 417.808594 768.71875 477.523438 C 786.277344 474.78125 803.742188 471.28125 821.117188 467.324219 C 801.742188 435.289062 750.226562 365.335938 664.617188 354.246094 " fill-opacity="1" fill-rule="nonzero"/><path fill="#6fd189" d="M 768.71875 477.523438 C 770.796875 482.144531 772.71875 486.84375 774.453125 491.628906 L 829.9375 483.304688 C 829.9375 483.304688 827.011719 477.070312 821.117188 467.324219 C 803.742188 471.28125 786.277344 474.78125 768.71875 477.523438 " fill-opacity="1" fill-rule="nonzero"/><path fill="#60c47b" d="M 566.902344 367.394531 C 459.726562 412 441.460938 541.570312 441.460938 541.570312 L 509.910156 531.304688 C 509.800781 530.5 509.679688 529.6875 509.535156 528.855469 C 500.113281 474.523438 544.6875 400.273438 566.902344 367.394531 " fill-opacity="1" fill-rule="nonzero"/><path fill="#006837" d="M 829.9375 483.304688 C 831.398438 493.054688 745.617188 514.003906 638.347656 530.09375 C 531.070312 546.183594 442.921875 551.324219 441.460938 541.570312 C 439.996094 531.824219 525.773438 510.875 633.050781 494.785156 C 740.320312 478.695312 828.46875 473.554688 829.9375 483.304688 " fill-opacity="1" fill-rule="nonzero"/><path fill="#ffd4cd" d="M 660.035156 675.460938 C 659.769531 675.503906 659.488281 675.460938 659.234375 675.328125 C 658.574219 674.996094 658.316406 674.191406 658.648438 673.535156 L 761.519531 472.765625 C 761.859375 472.109375 762.664062 471.851562 763.320312 472.1875 C 763.972656 472.523438 764.234375 473.328125 763.898438 473.984375 L 661.027344 674.753906 C 660.828125 675.148438 660.453125 675.398438 660.035156 675.460938 " fill-opacity="1" fill-rule="nonzero"/><path fill="#ffd4cd" d="M 634.886719 708.242188 C 635.15625 708.273438 635.429688 708.222656 635.6875 708.082031 C 636.332031 707.726562 636.570312 706.910156 636.210938 706.269531 L 527.257812 508.738281 C 526.898438 508.089844 526.089844 507.859375 525.441406 508.214844 C 524.796875 508.570312 524.5625 509.382812 524.917969 510.03125 L 633.875 707.558594 C 634.085938 707.949219 634.472656 708.195312 634.886719 708.242188 " fill-opacity="1" fill-rule="nonzero"/><path fill="#ffd4cd" d="M 633.019531 674.230469 C 632.96875 674.238281 632.914062 674.242188 632.863281 674.242188 C 632.191406 674.257812 631.636719 673.714844 631.621094 673.03125 L 627.914062 493.328125 C 627.898438 492.648438 628.433594 492.085938 629.101562 492.074219 C 629.773438 492.066406 630.328125 492.605469 630.34375 493.289062 L 634.050781 672.988281 C 634.0625 673.617188 633.617188 674.140625 633.019531 674.230469 " fill-opacity="1" fill-rule="nonzero"/><path fill="#e8462c" d="M 748.957031 745.003906 C 748.605469 745.054688 748.234375 744.921875 747.988281 744.621094 C 747.902344 744.511719 739.226562 733.351562 749.949219 723.734375 C 760.675781 714.109375 772.617188 726.054688 772.738281 726.171875 C 773.136719 726.582031 773.128906 727.238281 772.71875 727.644531 C 772.3125 728.046875 771.652344 728.039062 771.253906 727.625 C 770.824219 727.1875 760.582031 716.988281 751.332031 725.277344 C 742.085938 733.574219 749.304688 742.933594 749.621094 743.328125 C 749.972656 743.777344 749.894531 744.433594 749.445312 744.785156 C 749.300781 744.90625 749.132812 744.972656 748.957031 745.003906 " fill-opacity="1" fill-rule="nonzero"/><path fill="#ff96a9" d="M 654.605469 649.328125 C 654.605469 649.328125 655.269531 668.363281 660.84375 655.328125 C 662.441406 651.585938 664.371094 648.671875 666.3125 646.402344 C 664.652344 644.464844 663.296875 642.25 662.351562 639.898438 L 654.605469 649.328125 " fill-opacity="1" fill-rule="nonzero"/><path fill="#ed7e94" d="M 676.019531 639.183594 L 664.175781 637.671875 L 663.101562 638.988281 L 662.351562 639.898438 C 663.296875 642.25 664.652344 644.464844 666.3125 646.402344 C 666.515625 646.164062 666.71875 645.9375 666.921875 645.710938 C 671.535156 640.636719 676.019531 639.183594 676.019531 639.183594 " fill-opacity="1" fill-rule="nonzero"/><path fill="#ed7e94" d="M 670.316406 635.097656 C 673.507812 629.070312 680.355469 632.320312 686.152344 632.539062 C 686.664062 629.816406 686.882812 627.835938 686.882812 627.835938 C 647.332031 605.738281 658.402344 636.84375 658.402344 636.84375 C 658.402344 636.84375 664.039062 641.820312 669.726562 645.183594 C 668.617188 641.9375 668.710938 638.21875 670.316406 635.097656 " fill-opacity="1" fill-rule="nonzero"/><path fill="#ff96a9" d="M 670.316406 635.097656 C 668.710938 638.21875 668.617188 641.9375 669.726562 645.183594 C 673.523438 647.433594 677.34375 648.960938 679.53125 647.796875 C 683.125 645.890625 685.175781 637.816406 686.152344 632.539062 C 680.355469 632.320312 673.507812 629.070312 670.316406 635.097656 " fill-opacity="1" fill-rule="nonzero"/><path fill="#3f327a" d="M 668.320312 625.957031 C 668.320312 625.957031 677.59375 633.171875 691.699219 630.636719 C 705.804688 628.097656 705.035156 614.574219 689.140625 613.597656 C 673.246094 612.625 666.964844 616.925781 666.964844 616.925781 C 666.964844 616.925781 662.203125 613.1875 653.195312 617.496094 C 644.1875 621.8125 646.277344 631.570312 646.277344 631.570312 C 646.277344 631.570312 624.25 638.652344 629.175781 658.90625 C 634.105469 679.15625 654.503906 667.703125 666.585938 629.785156 C 666.585938 629.785156 662.582031 628.285156 665.292969 625.359375 C 668.003906 622.433594 668.320312 625.957031 668.320312 625.957031 " fill-opacity="1" fill-rule="nonzero"/><path fill="#ed7e94" d="M 605.066406 660.183594 C 605.671875 660.488281 606.28125 660.792969 606.894531 661.089844 C 611.300781 656.207031 614.230469 650.089844 614.042969 643.683594 L 614.03125 643.679688 C 613.144531 650.152344 610.027344 655.9375 605.066406 660.183594 " fill-opacity="1" fill-rule="nonzero"/><path fill="#ed7e94" d="M 627.78125 614.617188 C 625.292969 612.046875 626.320312 607.699219 628.476562 605.273438 C 618.671875 612.773438 610.640625 623.058594 606.914062 634.828125 C 610.265625 628.433594 616.648438 617.824219 624.820312 611.699219 C 624.820312 611.699219 619.867188 620.628906 630.101562 618.886719 C 633.574219 618.292969 637.164062 614.617188 639.371094 610.414062 C 637.539062 612.277344 635.394531 613.871094 632.894531 615.109375 C 630.898438 615.824219 628.785156 615.722656 627.78125 614.617188 " fill-opacity="1" fill-rule="nonzero"/><path fill="#ed7e94" d="M 588.4375 640.667969 C 588.515625 639.449219 588.628906 638.25 588.761719 637.058594 C 587.144531 640.8125 585.96875 644.527344 585.351562 648.054688 C 585.351562 648.054688 594.035156 654.605469 605.066406 660.183594 C 606.460938 658.992188 607.707031 657.667969 608.800781 656.25 C 602.050781 653.488281 595.632812 649.992188 589.59375 645.53125 C 588.644531 644.835938 588.277344 642.371094 588.4375 640.667969 " fill-opacity="1" fill-rule="nonzero"/><path fill="#ff96a9" d="M 614.03125 643.679688 L 604.320312 640.171875 C 604.320312 640.171875 605.238281 638.03125 606.914062 634.828125 C 610.640625 623.058594 618.671875 612.773438 628.476562 605.273438 C 626.320312 607.699219 625.292969 612.046875 627.78125 614.617188 C 628.785156 615.722656 630.898438 615.824219 632.894531 615.109375 C 635.394531 613.871094 637.539062 612.277344 639.371094 610.414062 C 643.660156 602.226562 642.667969 592.019531 625.171875 598.636719 C 610.980469 604.003906 595.742188 620.867188 588.761719 637.058594 C 588.628906 638.25 588.515625 639.449219 588.4375 640.667969 C 588.277344 642.371094 588.644531 644.835938 589.59375 645.53125 C 595.632812 649.992188 602.050781 653.488281 608.800781 656.25 C 611.597656 652.621094 613.390625 648.328125 614.03125 643.679688 " fill-opacity="1" fill-rule="nonzero"/><path fill="#ff96a9" d="M 668.960938 654.992188 L 658.042969 651.195312 L 644.820312 652.363281 C 647.664062 655.296875 651.371094 657.125 655.34375 657.890625 C 659.980469 658.363281 664.886719 657.222656 668.960938 654.992188 " fill-opacity="1" fill-rule="nonzero"/><path fill="#ed7e94" d="M 655.34375 657.890625 C 660.492188 658.886719 666.078125 658.105469 670.804688 655.632812 L 668.960938 654.992188 C 664.886719 657.222656 659.980469 658.363281 655.34375 657.890625 " fill-opacity="1" fill-rule="nonzero"/><path fill="#db4a87" d="M 610.164062 656.785156 C 609.207031 658.300781 608.109375 659.746094 606.894531 661.089844 C 612.863281 663.976562 619.394531 666.476562 625.546875 667.472656 C 625.546875 665.492188 625.5625 663.515625 625.582031 661.542969 C 620.277344 660.292969 615.132812 658.730469 610.164062 656.785156 " fill-opacity="1" fill-rule="nonzero"/><path fill="#db4a87" d="M 667.246094 672.269531 C 669.152344 672.527344 670.242188 672.683594 670.242188 672.683594 C 670.242188 672.683594 673.222656 681.921875 678.0625 691.957031 C 678.945312 690.671875 679.921875 689.457031 680.96875 688.324219 C 676.324219 680.367188 672.429688 671.832031 668.355469 663.945312 C 667.878906 666.660156 667.535156 669.46875 667.246094 672.269531 " fill-opacity="1" fill-rule="nonzero"/><path fill="#e5649a" d="M 680.855469 659.128906 L 670.804688 655.632812 C 662.433594 660.011719 651.351562 659.09375 644.820312 652.363281 L 639.394531 652.839844 L 614.042969 643.683594 C 614.179688 648.324219 612.675781 652.808594 610.164062 656.785156 C 615.132812 658.730469 620.277344 660.292969 625.582031 661.542969 C 625.5625 663.515625 625.546875 665.492188 625.546875 667.472656 C 626.515625 667.632812 627.46875 667.757812 628.417969 667.835938 C 643.207031 669.0625 660.425781 671.332031 667.246094 672.269531 C 667.535156 669.46875 667.878906 666.660156 668.355469 663.945312 C 672.429688 671.832031 676.324219 680.367188 680.96875 688.324219 C 684.117188 684.917969 687.964844 682.1875 692.179688 680.085938 L 680.855469 659.128906 " fill-opacity="1" fill-rule="nonzero"/><path fill="#ed7e94" d="M 692.503906 680.6875 L 692.179688 680.085938 C 686.554688 682.890625 681.589844 686.8125 678.0625 691.957031 C 678.300781 692.453125 678.539062 692.945312 678.789062 693.441406 C 682.113281 687.761719 686.925781 683.585938 692.503906 680.6875 " fill-opacity="1" fill-rule="nonzero"/><path fill="#ff96a9" d="M 703.273438 700.628906 L 692.503906 680.6875 C 688.347656 682.847656 684.613281 685.722656 681.609375 689.394531 C 684.117188 693.59375 686.855469 697.613281 689.949219 701.273438 C 694.402344 701.957031 698.894531 701.59375 703.273438 700.628906 " fill-opacity="1" fill-rule="nonzero"/><path fill="#ed7e94" d="M 703.273438 700.628906 C 698.894531 701.59375 694.402344 701.957031 689.949219 701.273438 C 695.152344 707.410156 701.378906 712.523438 709.296875 715.738281 C 709.917969 716 710.535156 716.242188 711.160156 716.472656 C 712.371094 712.679688 713.722656 708.988281 715.113281 705.335938 L 704.984375 703.789062 L 703.273438 700.628906 " fill-opacity="1" fill-rule="nonzero"/><path fill="#ed7e94" d="M 744.960938 726.761719 C 745.25 725.878906 743.339844 721.542969 745.023438 718.773438 C 732.929688 719.328125 720.960938 720.699219 709.296875 715.738281 C 696.65625 710.609375 688.332031 700.644531 681.609375 689.394531 C 680.578125 690.648438 679.636719 691.992188 678.789062 693.441406 C 682.300781 700.503906 686.679688 707.75 691.5625 712.308594 C 703.769531 723.699219 741.429688 721.410156 741.429688 721.410156 C 741.429688 721.410156 739.109375 725.535156 742.445312 728.183594 C 742.445312 728.183594 736.195312 729.445312 737.21875 731.90625 C 740.519531 731.59375 743.308594 730.273438 744.960938 726.761719 " fill-opacity="1" fill-rule="nonzero"/><path fill="#db4a87" d="M 644.597656 718.304688 C 639.300781 716.582031 634.515625 712.679688 632.074219 707.589844 C 625.6875 693.011719 625.398438 677.105469 625.582031 661.542969 C 624.480469 661.28125 623.386719 661.007812 622.296875 660.714844 C 619.824219 671.648438 613.527344 710.355469 639.832031 739.730469 L 666.441406 725.664062 C 666.441406 725.664062 664.738281 722.566406 663.082031 718.449219 C 657.339844 720.886719 650.5 720.679688 644.597656 718.304688 " fill-opacity="1" fill-rule="nonzero"/><path fill="#db4a87" d="M 662.667969 682.011719 C 655.066406 687.347656 643.058594 691.246094 634.90625 684.492188 C 630.597656 680.945312 632.132812 674.414062 637.289062 672.378906 C 644.019531 669.691406 651.191406 669.875 658.1875 671.765625 C 648.554688 666.351562 635.871094 665.96875 625.566406 670.003906 C 625.636719 676.597656 625.972656 683.195312 627 689.679688 C 638.628906 696.058594 654.53125 693.011719 662.667969 682.011719 " fill-opacity="1" fill-rule="nonzero"/><path fill="#e5649a" d="M 672.652344 673.015625 L 668.917969 663.859375 L 623.050781 657.722656 C 623.050781 657.722656 622.734375 658.796875 622.296875 660.714844 C 623.386719 661.007812 624.480469 661.28125 625.582031 661.542969 C 625.550781 664.355469 625.53125 667.179688 625.566406 670.003906 C 635.871094 665.96875 648.554688 666.351562 658.1875 671.765625 C 651.191406 669.875 644.019531 669.691406 637.289062 672.378906 C 632.132812 674.414062 630.597656 680.945312 634.90625 684.492188 C 643.058594 691.246094 655.066406 687.347656 662.667969 682.011719 C 654.53125 693.011719 638.628906 696.058594 627 689.679688 C 627.960938 695.792969 629.535156 701.792969 632.074219 707.589844 C 634.515625 712.679688 639.300781 716.582031 644.597656 718.304688 C 650.5 720.679688 657.339844 720.886719 663.082031 718.449219 C 660.910156 713.035156 658.074219 710.59375 659.980469 706.335938 C 660.996094 704.058594 662.09375 702.460938 663.207031 701.167969 C 664.058594 696.371094 663.71875 691.335938 662.109375 686.707031 C 667.246094 690.136719 674.410156 690.324219 679.316406 686.644531 C 682.371094 684.335938 683.441406 680.957031 684.34375 677.410156 C 683.242188 670.148438 672.652344 673.015625 672.652344 673.015625 " fill-opacity="1" fill-rule="nonzero"/><path fill="#db4a87" d="M 679.316406 686.644531 C 674.410156 690.324219 667.246094 690.136719 662.109375 686.707031 C 663.71875 691.335938 664.058594 696.371094 663.207031 701.167969 C 665.753906 698.207031 668.382812 696.890625 670.316406 692.894531 C 670.316406 692.894531 682.066406 692.71875 684.210938 681.011719 C 684.472656 679.597656 684.496094 678.410156 684.34375 677.410156 C 683.441406 680.957031 682.371094 684.335938 679.316406 686.644531 " fill-opacity="1" fill-rule="nonzero"/><path fill="#db4a87" d="M 691.394531 876.265625 L 692.175781 874.414062 C 692.648438 867.214844 693.378906 860.027344 694.378906 852.875 C 693.417969 852.828125 692.441406 852.855469 691.46875 852.96875 C 690.933594 866.605469 691.394531 876.265625 691.394531 876.265625 " fill-opacity="1" fill-rule="nonzero"/><path fill="#ed7e94" d="M 683.410156 750.871094 L 678.988281 762.796875 L 708.015625 779.957031 C 695.808594 798.75 692.335938 831.011719 691.46875 852.96875 C 692.441406 852.855469 693.417969 852.828125 694.378906 852.875 C 698.222656 825.457031 706.0625 798.554688 718.863281 773.914062 C 705.136719 769.335938 693.871094 760.636719 683.410156 750.871094 " fill-opacity="1" fill-rule="nonzero"/><path fill="#ed7e94" d="M 690.34375 732.152344 L 683.410156 750.871094 C 687 754.226562 690.699219 757.453125 694.546875 760.429688 C 697.101562 754.640625 698.972656 748.503906 701.167969 742.453125 L 690.34375 732.152344 " fill-opacity="1" fill-rule="nonzero"/><path fill="#e5649a" d="M 692.175781 874.414062 L 700.640625 854.316406 C 698.640625 853.488281 696.53125 852.984375 694.378906 852.875 C 693.378906 860.027344 692.648438 867.214844 692.175781 874.414062 " fill-opacity="1" fill-rule="nonzero"/><path fill="#ff96a9" d="M 701.167969 742.453125 C 698.972656 748.503906 697.101562 754.640625 694.546875 760.429688 C 701.90625 766.121094 709.855469 770.90625 718.863281 773.914062 C 706.0625 798.554688 698.222656 825.457031 694.378906 852.875 C 696.53125 852.984375 698.640625 853.488281 700.640625 854.316406 L 734.425781 774.101562 L 701.167969 742.453125 " fill-opacity="1" fill-rule="nonzero"/><path fill="#ed7e94" d="M 680.15625 709.050781 C 654.351562 720.777344 639.832031 739.730469 639.832031 739.730469 C 649.382812 751.703125 660.527344 753.402344 665.53125 753.5 C 667.011719 751.535156 668.484375 749.570312 670 747.660156 C 665.972656 733.828125 670.917969 719.382812 680.15625 709.050781 " fill-opacity="1" fill-rule="nonzero"/><path fill="#e5649a" d="M 662.613281 798.597656 C 663.171875 812.664062 665.390625 822.371094 665.390625 822.371094 C 669.265625 814.933594 673.191406 806.652344 677.050781 798.019531 C 675.703125 797.3125 674.234375 796.886719 672.746094 796.78125 C 669.28125 796.371094 665.71875 796.894531 662.613281 798.597656 " fill-opacity="1" fill-rule="nonzero"/><path fill="#ff96a9" d="M 680.15625 709.050781 C 670.917969 719.382812 665.972656 733.828125 670 747.660156 C 668.484375 749.570312 667.011719 751.535156 665.53125 753.5 C 667.210938 753.53125 668.199219 753.382812 668.199219 753.382812 C 662.992188 769.375 662.109375 785.792969 662.613281 798.597656 C 665.71875 796.894531 669.28125 796.371094 672.746094 796.78125 C 674.234375 796.886719 675.703125 797.3125 677.050781 798.019531 C 696.796875 753.835938 714.804688 700.214844 714.804688 700.214844 C 701.703125 701.089844 690.09375 704.535156 680.15625 709.050781 " fill-opacity="1" fill-rule="nonzero"/><path fill="#db4a87" d="M 665.390625 822.371094 C 665.390625 822.371094 665.113281 811.878906 666.230469 797.179688 C 664.984375 797.5 663.769531 797.964844 662.613281 798.597656 C 663.171875 812.664062 665.390625 822.371094 665.390625 822.371094 " fill-opacity="1" fill-rule="nonzero"/><path fill="#ed7e94" d="M 688.328125 721.191406 L 672.179688 740.617188 L 649.238281 748.351562 C 659.167969 754.738281 668.199219 753.382812 668.199219 753.382812 C 662.992188 769.375 662.109375 785.792969 662.613281 798.597656 C 663.769531 797.964844 664.984375 797.5 666.230469 797.179688 C 667.988281 774.101562 673.1875 740.644531 688.328125 721.191406 " fill-opacity="1" fill-rule="nonzero"/><path fill="#ff5b41" d="M 737.484375 752.507812 L 783.820312 716.144531 L 814.894531 747.894531 L 770.109375 787.078125 L 737.484375 752.507812 " fill-opacity="1" fill-rule="nonzero"/><path fill="#e8462c" d="M 737.484375 752.507812 L 756.964844 789.050781 L 770.109375 787.078125 Z M 737.484375 752.507812 " fill-opacity="1" fill-rule="nonzero"/><path fill="#e8462c" d="M 737.484375 752.507812 L 781.097656 752.121094 L 783.820312 716.144531 Z M 737.484375 752.507812 " fill-opacity="1" fill-rule="nonzero"/><path fill="#ed7e94" d="M 678.195312 644.648438 C 678.253906 645.042969 677.984375 645.417969 677.582031 645.476562 C 677.1875 645.535156 676.816406 645.265625 676.757812 644.863281 C 676.699219 644.46875 676.972656 644.097656 677.371094 644.039062 C 677.765625 643.980469 678.136719 644.253906 678.195312 644.648438 " fill-opacity="1" fill-rule="nonzero"/><path fill="#db4a87" d="M 672.652344 673.015625 L 669.117188 664.351562 L 676.464844 672.472656 C 676.464844 672.472656 674.972656 672.378906 672.652344 673.015625 " fill-opacity="1" fill-rule="nonzero"/><path fill="#322666" d="M 662.3125 719.253906 C 647.761719 729.382812 639.832031 739.730469 639.832031 739.730469 C 652.589844 755.730469 668.199219 753.382812 668.199219 753.382812 C 668.199219 753.382812 666.746094 748.210938 666.523438 741.128906 C 660.808594 741.84375 655.066406 741.746094 649.503906 739.816406 C 652.191406 731.96875 656.664062 725.125 662.3125 719.253906 " fill-opacity="1" fill-rule="nonzero"/><path fill="#3f327a" d="M 680.589844 708.859375 C 673.671875 711.964844 667.558594 715.59375 662.3125 719.253906 C 656.664062 725.125 652.191406 731.96875 649.503906 739.816406 C 655.066406 741.746094 660.808594 741.84375 666.523438 741.128906 C 666.203125 731.109375 668.351562 717.261719 680.589844 708.859375 " fill-opacity="1" fill-rule="nonzero"/><path fill="#3f327a" d="M 784.261719 751.296875 C 784.539062 753.140625 783.269531 754.863281 781.429688 755.136719 C 779.585938 755.414062 777.867188 754.140625 777.59375 752.300781 C 777.316406 750.460938 778.582031 748.742188 780.425781 748.464844 C 782.273438 748.1875 783.984375 749.453125 784.261719 751.296875 " fill-opacity="1" fill-rule="nonzero"/><path fill="#ff96a9" d="M 747.3125 710.242188 L 715.113281 705.335938 C 713.722656 708.988281 712.371094 712.679688 711.160156 716.472656 C 722.230469 720.558594 733.570312 719.300781 745.023438 718.773438 C 743.339844 721.542969 745.25 725.878906 744.960938 726.761719 C 743.308594 730.273438 740.519531 731.59375 737.21875 731.90625 C 737.367188 732.261719 737.65625 732.632812 738.132812 733.03125 C 741.972656 736.234375 749.027344 732.867188 750.300781 730.15625 C 750.300781 730.15625 760.761719 743.910156 765.820312 741.261719 C 770.886719 738.617188 763 732.242188 763 732.242188 C 763 732.242188 776.496094 710.277344 747.3125 710.242188 " fill-opacity="1" fill-rule="nonzero"/><path fill="#ffffff" d="M 94.378906 295.453125 L 169.996094 295.453125 L 139.988281 289.777344 C 139.988281 289.777344 143.890625 280.988281 134.289062 281.84375 C 134.289062 281.84375 135.488281 271.722656 126.488281 273.910156 C 126.488281 273.910156 125.886719 263.800781 114.484375 264.699219 C 103.082031 265.601562 108.183594 277.703125 108.183594 277.703125 C 108.183594 277.703125 96.179688 269.402344 89.878906 277.703125 C 83.578125 286 94.378906 295.453125 94.378906 295.453125 " fill-opacity="1" fill-rule="nonzero"/><path fill="#ffffff" d="M 717.738281 291.230469 L 575.738281 291.230469 L 632.085938 287.292969 C 632.085938 287.292969 624.761719 281.191406 642.792969 281.785156 C 642.792969 281.785156 640.539062 274.753906 657.445312 276.273438 C 657.445312 276.273438 658.570312 269.253906 679.984375 269.878906 C 701.398438 270.507812 691.816406 278.910156 691.816406 278.910156 C 691.816406 278.910156 714.359375 273.144531 726.195312 278.910156 C 738.027344 284.667969 717.738281 291.230469 717.738281 291.230469 " fill-opacity="1" fill-rule="nonzero"/><path fill="#ffffff" d="M 629.578125 794.472656 L 250.894531 794.472656 L 387.804688 773.121094 C 387.804688 773.121094 388.566406 731.945312 433.566406 748.722656 C 433.566406 748.722656 437.242188 717.457031 472.011719 715.933594 C 506.785156 714.402344 504.496094 744.144531 504.496094 744.144531 C 504.496094 744.144531 548.730469 715.171875 574.667969 743.382812 C 600.597656 771.597656 559.414062 779.222656 559.414062 779.222656 L 629.578125 794.472656 " fill-opacity="1" fill-rule="nonzero"/></svg>