<svg xmlns="http://www.w3.org/2000/svg" xmlns:xlink="http://www.w3.org/1999/xlink" width="1280" zoomAndPan="magnify" viewBox="0 0 960 959.999988" height="1280" preserveAspectRatio="xMidYMid meet" version="1.0"><defs><clipPath id="a55aa0024b"><path d="M 422 126.601562 L 510 126.601562 L 510 181 L 422 181 Z M 422 126.601562 " clip-rule="nonzero"/></clipPath><clipPath id="e2cf35c411"><path d="M 0.8125 827.898438 L 959.160156 827.898438 L 959.160156 833.101562 L 0.8125 833.101562 Z M 0.8125 827.898438 " clip-rule="nonzero"/></clipPath></defs><path fill="#ff5b41" d="M 588.300781 411.976562 C 588.300781 442.980469 538.28125 468.113281 476.582031 468.113281 C 414.882812 468.113281 364.863281 442.980469 364.863281 411.976562 C 364.863281 380.972656 414.882812 355.839844 476.582031 355.839844 C 538.28125 355.839844 588.300781 380.972656 588.300781 411.976562 " fill-opacity="1" fill-rule="nonzero"/><path fill="#eb3d21" d="M 476.582031 460.679688 C 417.371094 460.679688 368.921875 437.53125 365.113281 408.257812 C 364.953125 409.488281 364.863281 410.726562 364.863281 411.976562 C 364.863281 442.980469 414.882812 468.113281 476.582031 468.113281 C 538.28125 468.113281 588.300781 442.980469 588.300781 411.976562 C 588.300781 410.726562 588.207031 409.488281 588.046875 408.257812 C 584.238281 437.53125 535.796875 460.679688 476.582031 460.679688 " fill-opacity="1" fill-rule="nonzero"/><path fill="#7860dc" d="M 544.582031 286.625 L 541.871094 328.757812 L 695.761719 375.273438 C 654.1875 333.394531 602.0625 301.152344 544.582031 286.625 " fill-opacity="1" fill-rule="nonzero"/><path fill="#ed7e94" d="M 439.140625 177.050781 C 439.140625 177.050781 432.199219 174.574219 432.199219 178.789062 C 432.199219 183.003906 436.414062 189.636719 439.140625 190.285156 C 441.867188 190.933594 439.140625 177.050781 439.140625 177.050781 " fill-opacity="1" fill-rule="nonzero"/><path fill="#ff5b41" d="M 558.515625 592.472656 L 405.5 592.472656 C 398.742188 592.472656 393.269531 587 393.269531 580.25 C 393.269531 573.5 398.742188 568.027344 405.5 568.027344 L 558.515625 568.027344 C 565.265625 568.027344 570.742188 573.5 570.742188 580.25 C 570.742188 587 565.265625 592.472656 558.515625 592.472656 " fill-opacity="1" fill-rule="nonzero"/><path fill="#ff5b41" d="M 512.675781 646.976562 L 451.335938 646.976562 C 445.472656 646.976562 440.722656 642.226562 440.722656 636.367188 L 440.722656 586.023438 C 440.722656 580.160156 445.472656 575.410156 451.335938 575.410156 L 512.675781 575.410156 C 518.539062 575.410156 523.289062 580.160156 523.289062 586.023438 L 523.289062 636.367188 C 523.289062 642.226562 518.539062 646.976562 512.675781 646.976562 " fill-opacity="1" fill-rule="nonzero"/><path fill="#ff5b41" d="M 469.886719 827.898438 L 492.945312 827.898438 L 492.945312 603.753906 L 469.886719 603.753906 Z M 469.886719 827.898438 " fill-opacity="1" fill-rule="nonzero"/><path fill="#eb3d21" d="M 513.046875 639.539062 L 450.964844 639.539062 C 445.308594 639.539062 440.722656 634.957031 440.722656 629.304688 L 440.722656 636.738281 C 440.722656 642.394531 445.308594 646.976562 450.964844 646.976562 L 513.046875 646.976562 C 518.703125 646.976562 523.289062 642.394531 523.289062 636.738281 L 523.289062 629.304688 C 523.289062 634.957031 518.703125 639.539062 513.046875 639.539062 " fill-opacity="1" fill-rule="nonzero"/><path fill="#eb3d21" d="M 558.515625 585.78125 L 405.5 585.78125 C 399.90625 585.78125 395.203125 582.027344 393.746094 576.90625 C 393.441406 577.96875 393.269531 579.089844 393.269531 580.25 C 393.269531 587 398.742188 592.472656 405.5 592.472656 L 558.515625 592.472656 C 565.265625 592.472656 570.742188 587 570.742188 580.25 C 570.742188 579.089844 570.570312 577.96875 570.265625 576.90625 C 568.808594 582.027344 564.105469 585.78125 558.515625 585.78125 " fill-opacity="1" fill-rule="nonzero"/><path fill="#ff5b41" d="M 564.992188 827.898438 L 396.988281 827.898438 L 480.988281 802.152344 L 564.992188 827.898438 " fill-opacity="1" fill-rule="nonzero"/><path fill="#fef2fe" d="M 396.125 329.324219 C 395.941406 332.945312 395.8125 336.574219 395.753906 340.199219 C 397.449219 337.964844 399.085938 335.679688 400.648438 333.320312 L 396.125 329.324219 " fill-opacity="1" fill-rule="nonzero"/><path fill="#8b77e8" d="M 383.296875 317.972656 L 314.535156 257.152344 C 297.113281 300.113281 281.234375 344.414062 276.488281 391.195312 C 317.519531 376.679688 353.726562 349.847656 383.296875 317.972656 " fill-opacity="1" fill-rule="nonzero"/><path fill="#7860dc" d="M 383.296875 317.972656 C 353.726562 349.847656 317.519531 376.679688 276.488281 391.195312 C 281.234375 344.414062 297.113281 300.113281 314.535156 257.152344 L 307.480469 250.914062 C 307.480469 250.914062 264.335938 354.515625 257.394531 415.730469 C 257.394531 415.730469 349.960938 400.515625 395.753906 340.199219 C 395.8125 336.574219 395.941406 332.945312 396.125 329.324219 L 383.296875 317.972656 " fill-opacity="1" fill-rule="nonzero"/><path fill="#ed7e94" d="M 455.753906 218.695312 L 453.136719 234.792969 C 461.757812 240.648438 472.6875 240.296875 482.054688 235.875 L 478.8125 218.695312 L 455.753906 218.695312 " fill-opacity="1" fill-rule="nonzero"/><path fill="#ff96a9" d="M 500.480469 167.316406 C 483.730469 179.308594 462.484375 185.863281 442.363281 183.746094 C 444.308594 202.527344 452.460938 232.585938 472.71875 235.605469 C 494.210938 229.972656 499.367188 182.632812 500.480469 167.316406 " fill-opacity="1" fill-rule="nonzero"/><path fill="#ed7e94" d="M 442.363281 183.746094 C 462.484375 185.863281 483.730469 179.308594 500.480469 167.316406 C 500.695312 164.324219 500.753906 162.554688 500.753906 162.554688 L 435.667969 162.554688 C 435.667969 162.554688 438.644531 236.167969 468.398438 236.167969 C 469.910156 236.167969 471.347656 235.96875 472.71875 235.605469 C 452.460938 232.585938 444.308594 202.527344 442.363281 183.746094 " fill-opacity="1" fill-rule="nonzero"/><g clip-path="url(#a55aa0024b)"><path fill="#322666" d="M 500.5 167.023438 C 500.5 167.023438 464.621094 186.664062 437.179688 178.957031 C 423.886719 175.226562 422.40625 157.625 422.460938 149.375 C 422.480469 146.378906 423.625 143.488281 425.699219 141.320312 C 430.886719 135.914062 443.175781 126.601562 466.167969 126.867188 C 498.523438 127.234375 509.3125 142.851562 509.3125 142.851562 C 509.3125 142.851562 512.691406 176.632812 499.097656 180.753906 L 500.5 167.023438 " fill-opacity="1" fill-rule="nonzero"/></g><path fill="#7860dc" d="M 422.28125 429.113281 C 391.039062 392.679688 394.015625 344.347656 398.476562 300.480469 C 395.339844 304.34375 392.109375 308.15625 388.789062 311.910156 C 385.59375 381.945312 395.609375 450.207031 419.554688 516.601562 L 529.761719 516.601562 C 533.105469 504.703125 536.101562 492.8125 538.773438 480.914062 C 494.78125 479.511719 451.992188 464.664062 422.28125 429.113281 " fill-opacity="1" fill-rule="nonzero"/><path fill="#8b77e8" d="M 546.503906 256.863281 L 484.390625 248.246094 L 450.921875 248.433594 L 393.269531 261.816406 C 391.039062 278.613281 389.546875 295.3125 388.789062 311.910156 C 392.109375 308.15625 395.339844 304.34375 398.476562 300.480469 C 394.015625 344.347656 391.039062 392.679688 422.28125 429.113281 C 451.992188 464.664062 494.78125 479.511719 538.773438 480.914062 C 555.566406 406.160156 558.964844 331.46875 546.503906 256.863281 " fill-opacity="1" fill-rule="nonzero"/><path fill="#e5649a" d="M 468.214844 284.867188 L 461.277344 297.492188 L 468.214844 316.335938 L 475.933594 297.695312 L 468.214844 284.867188 " fill-opacity="1" fill-rule="nonzero"/><path fill="#ffffff" d="M 412.941406 345.96875 L 297.726562 345.96875 L 297.726562 190.285156 L 412.941406 190.285156 L 412.941406 345.96875 " fill-opacity="1" fill-rule="nonzero"/><path fill="#322666" d="M 298.949219 344.75 L 411.722656 344.75 L 411.722656 191.503906 L 298.949219 191.503906 Z M 414.160156 347.191406 L 296.507812 347.191406 L 296.507812 189.0625 L 414.160156 189.0625 L 414.160156 347.191406 " fill-opacity="1" fill-rule="nonzero"/><path fill="#7860dc" d="M 440.351562 257.152344 L 450.921875 316.335938 L 468.214844 284.867188 L 487.367188 316.335938 L 496.320312 258.472656 L 484.390625 306.289062 L 468.214844 277.804688 L 453.136719 303.085938 L 440.351562 257.152344 " fill-opacity="1" fill-rule="nonzero"/><path fill="#3f327a" d="M 351.5625 234.71875 L 337.914062 234.71875 C 337.761719 234.71875 337.636719 234.355469 337.636719 233.902344 C 337.636719 233.449219 337.761719 233.085938 337.914062 233.085938 L 351.5625 233.085938 C 351.714844 233.085938 351.839844 233.449219 351.839844 233.902344 C 351.839844 234.355469 351.714844 234.71875 351.5625 234.71875 " fill-opacity="1" fill-rule="nonzero"/><path fill="#3f327a" d="M 364.101562 245.449219 L 337.914062 245.449219 C 337.761719 245.449219 337.636719 245.085938 337.636719 244.632812 C 337.636719 244.183594 337.761719 243.816406 337.914062 243.816406 L 364.101562 243.816406 C 364.257812 243.816406 364.382812 244.183594 364.382812 244.632812 C 364.382812 245.085938 364.257812 245.449219 364.101562 245.449219 " fill-opacity="1" fill-rule="nonzero"/><path fill="#3f327a" d="M 388.820312 276.59375 L 337.914062 276.59375 C 337.761719 276.59375 337.636719 276.230469 337.636719 275.777344 C 337.636719 275.324219 337.761719 274.957031 337.914062 274.957031 L 388.820312 274.957031 C 388.972656 274.957031 389.09375 275.324219 389.09375 275.777344 C 389.09375 276.230469 388.972656 276.59375 388.820312 276.59375 " fill-opacity="1" fill-rule="nonzero"/><path fill="#3f327a" d="M 400.253906 288.125 L 337.914062 288.125 C 337.761719 288.125 337.636719 287.757812 337.636719 287.308594 C 337.636719 286.855469 337.761719 286.488281 337.914062 286.488281 L 400.253906 286.488281 C 400.410156 286.488281 400.53125 286.855469 400.53125 287.308594 C 400.53125 287.757812 400.410156 288.125 400.253906 288.125 " fill-opacity="1" fill-rule="nonzero"/><path fill="#3f327a" d="M 374.984375 318.839844 L 338.835938 318.839844 C 338.683594 318.839844 338.558594 318.472656 338.558594 318.019531 C 338.558594 317.570312 338.683594 317.203125 338.835938 317.203125 L 374.984375 317.203125 C 375.140625 317.203125 375.261719 317.570312 375.261719 318.019531 C 375.261719 318.472656 375.140625 318.839844 374.984375 318.839844 " fill-opacity="1" fill-rule="nonzero"/><path fill="#3f327a" d="M 387.257812 330.167969 L 339.359375 330.167969 C 338.914062 330.167969 338.558594 329.804688 338.558594 329.351562 C 338.558594 328.898438 338.914062 328.535156 339.359375 328.535156 L 387.257812 328.535156 C 387.699219 328.535156 388.058594 328.898438 388.058594 329.351562 C 388.058594 329.804688 387.699219 330.167969 387.257812 330.167969 " fill-opacity="1" fill-rule="nonzero"/><path fill="#ff96a9" d="M 333.019531 200.847656 C 344.921875 203.078125 357.566406 200.105469 366.492188 191.925781 C 369.210938 208.230469 377.5 224.128906 390.769531 233.253906 C 392.1875 220.328125 388.839844 196.636719 378.394531 179.117188 C 366.632812 159.402344 327.011719 168.117188 316.589844 184.171875 C 318.574219 192.492188 324.492188 199.710938 333.019531 200.847656 " fill-opacity="1" fill-rule="nonzero"/><path fill="#ed7e94" d="M 366.492188 191.925781 C 357.566406 200.105469 344.921875 203.078125 333.019531 200.847656 C 324.492188 199.710938 318.574219 192.492188 316.589844 184.171875 C 313.386719 189.101562 312.941406 194.730469 316.902344 200.433594 C 333.765625 224.726562 363.519531 204.894531 363.519531 204.894531 C 365.996094 219.269531 377.898438 241.082031 385.832031 242.570312 C 388.375 243.046875 390.101562 239.34375 390.769531 233.253906 C 377.5 224.128906 369.210938 208.230469 366.492188 191.925781 " fill-opacity="1" fill-rule="nonzero"/><path fill="#8b77e8" d="M 546.503906 256.863281 L 544.582031 286.625 C 602.0625 301.152344 654.1875 333.394531 695.761719 375.273438 L 699.238281 376.320312 C 648.65625 305.933594 546.503906 256.863281 546.503906 256.863281 " fill-opacity="1" fill-rule="nonzero"/><path fill="#3f327a" d="M 475.835938 490.828125 C 475.835938 490.828125 388.808594 473.726562 249.710938 484.878906 L 299.625 810.464844 C 299.625 810.464844 353.175781 671.929688 336.441406 549.257812 C 336.441406 549.257812 460.285156 616.167969 613.136719 549.257812 C 613.136719 549.257812 601.980469 671.929688 646.609375 805.761719 L 699.238281 481.101562 C 699.238281 481.101562 636.433594 469.574219 475.835938 490.828125 " fill-opacity="1" fill-rule="nonzero"/><path fill="#322666" d="M 305.664062 790.277344 L 338.226562 827.898438 L 141.851562 827.898438 L 305.664062 790.277344 " fill-opacity="1" fill-rule="nonzero"/><path fill="#322666" d="M 642.585938 790.277344 L 612.023438 827.898438 L 796.117188 827.898438 L 642.585938 790.277344 " fill-opacity="1" fill-rule="nonzero"/><path fill="#ff96a9" d="M 497.53125 174.820312 C 497.53125 174.820312 504.476562 172.34375 504.476562 176.558594 C 504.476562 180.769531 500.261719 187.40625 497.53125 188.054688 C 494.804688 188.703125 497.53125 174.820312 497.53125 174.820312 " fill-opacity="1" fill-rule="nonzero"/><path fill="#ffffff" d="M 456.003906 214.976562 L 483.296875 214.976562 C 483.296875 214.976562 477.140625 228.875 469.386719 228.875 C 461.632812 228.875 456.003906 214.976562 456.003906 214.976562 " fill-opacity="1" fill-rule="nonzero"/><path fill="#ff96a9" d="M 453.136719 234.792969 L 450.921875 248.433594 L 468.214844 277.804688 L 484.390625 248.246094 L 482.054688 235.875 C 472.6875 240.296875 461.757812 240.648438 453.136719 234.792969 " fill-opacity="1" fill-rule="nonzero"/><path fill="#ed7e94" d="M 536.089844 325.019531 C 521.957031 333.199219 501.128906 341.378906 489.96875 325.019531 C 482.53125 314.609375 482.53125 301.96875 492.203125 293.789062 C 470.867188 296.539062 449.53125 290.378906 431.730469 280.015625 C 431.378906 280.371094 431.113281 280.746094 430.960938 281.148438 C 426.992188 291.558594 478.070312 298.328125 478.070312 298.328125 C 478.070312 298.328125 469.886719 304.445312 474.597656 321.363281 C 485.546875 360.6875 526.667969 341.128906 526.667969 341.128906 C 532.695312 345.335938 538.601562 349.164062 544.386719 352.660156 C 547.160156 349.1875 549.273438 345.335938 550.796875 341.242188 C 545.316406 336.472656 540.355469 331.089844 536.089844 325.019531 " fill-opacity="1" fill-rule="nonzero"/><path fill="#ff96a9" d="M 551.59375 306.289062 C 548.328125 305.402344 546.503906 304.945312 546.503906 304.945312 C 546.503906 304.945312 541.542969 290.070312 524.1875 283.628906 C 507.503906 277.433594 440.429688 271.242188 431.730469 280.015625 C 449.53125 290.378906 470.867188 296.539062 492.203125 293.789062 C 482.53125 301.96875 482.53125 314.609375 489.96875 325.019531 C 501.128906 341.378906 521.957031 333.199219 536.089844 325.019531 C 540.355469 331.089844 545.316406 336.472656 550.796875 341.242188 C 554.832031 330.410156 554.722656 317.898438 551.59375 306.289062 " fill-opacity="1" fill-rule="nonzero"/><path fill="#7860dc" d="M 544.386719 352.660156 C 550.25 356.199219 555.980469 359.390625 561.578125 362.261719 C 563.121094 358.929688 564.441406 355.472656 565.515625 351.945312 C 560.3125 348.78125 555.375 345.226562 550.796875 341.242188 C 549.273438 345.335938 547.160156 349.1875 544.386719 352.660156 " fill-opacity="1" fill-rule="nonzero"/><path fill="#7860dc" d="M 565.433594 310.210938 C 559.625 308.5 554.878906 307.175781 551.59375 306.289062 C 554.722656 317.898438 554.832031 330.410156 550.796875 341.242188 C 555.375 345.226562 560.3125 348.78125 565.515625 351.945312 C 569.660156 338.347656 570.121094 323.617188 565.433594 310.210938 " fill-opacity="1" fill-rule="nonzero"/><path fill="#8b77e8" d="M 692.007812 379.339844 C 696.75 377.664062 699.238281 376.320312 699.238281 376.320312 C 674.617188 345.367188 600.585938 320.585938 565.433594 310.210938 C 570.121094 323.617188 569.660156 338.347656 565.515625 351.945312 C 582.308594 362.152344 601.859375 368.324219 620.886719 371.859375 C 644.410156 376.101562 668.523438 379.9375 692.007812 379.339844 " fill-opacity="1" fill-rule="nonzero"/><path fill="#7860dc" d="M 620.886719 371.859375 C 601.859375 368.324219 582.308594 362.152344 565.515625 351.945312 C 564.441406 355.472656 563.121094 358.929688 561.578125 362.261719 C 627.445312 396.035156 674.710938 385.457031 692.007812 379.339844 C 668.523438 379.9375 644.410156 376.101562 620.886719 371.859375 " fill-opacity="1" fill-rule="nonzero"/><path fill="#db4a87" d="M 469.144531 510.160156 C 473.605469 475.957031 481.046875 443.238281 475.09375 408.296875 C 467.894531 372.96875 464.730469 339.371094 467.617188 304.972656 L 426.496094 487.355469 L 468.601562 533.949219 L 469.5 532.96875 C 467.796875 525.488281 468.097656 517.460938 469.144531 510.160156 " fill-opacity="1" fill-rule="nonzero"/><path fill="#e5649a" d="M 468.601562 300.601562 L 467.617188 304.972656 C 464.730469 339.371094 467.894531 372.96875 475.09375 408.296875 C 481.046875 443.238281 473.605469 475.957031 469.144531 510.160156 C 468.097656 517.460938 467.796875 525.488281 469.5 532.96875 L 509.683594 488.84375 L 468.601562 300.601562 " fill-opacity="1" fill-rule="nonzero"/><path fill="#8b77e8" d="M 559.792969 352.726562 C 559.792969 354.753906 558.152344 356.394531 556.125 356.394531 C 554.097656 356.394531 552.453125 354.753906 552.453125 352.726562 C 552.453125 350.703125 554.097656 349.058594 556.125 349.058594 C 558.152344 349.058594 559.792969 350.703125 559.792969 352.726562 " fill-opacity="1" fill-rule="nonzero"/><path fill="#322666" d="M 640.972656 510.160156 C 473.605469 609.792969 305.496094 510.160156 305.496094 510.160156 C 324.5625 590.835938 305.378906 761.058594 299.386719 808.929688 L 299.625 810.464844 C 299.625 810.464844 353.175781 671.929688 336.441406 549.257812 C 336.441406 549.257812 460.285156 616.167969 613.136719 549.257812 C 613.136719 549.257812 601.980469 671.929688 646.609375 805.761719 L 647.308594 801.46875 C 630.105469 700.238281 640.972656 510.160156 640.972656 510.160156 " fill-opacity="1" fill-rule="nonzero"/><path fill="#3f327a" d="M 309.273438 249.285156 L 330 249.285156 L 330 228.566406 L 309.273438 228.566406 Z M 330.820312 250.921875 L 308.453125 250.921875 C 308.003906 250.921875 307.632812 250.558594 307.632812 250.101562 L 307.632812 227.746094 C 307.632812 227.296875 308.003906 226.929688 308.453125 226.929688 L 330.820312 226.929688 C 331.269531 226.929688 331.636719 227.296875 331.636719 227.746094 L 331.636719 250.101562 C 331.636719 250.558594 331.269531 250.921875 330.820312 250.921875 " fill-opacity="1" fill-rule="nonzero"/><path fill="#3f327a" d="M 309.273438 333.628906 L 330 333.628906 L 330 312.90625 L 309.273438 312.90625 Z M 330.820312 335.265625 L 308.453125 335.265625 C 308.003906 335.265625 307.632812 334.898438 307.632812 334.445312 L 307.632812 312.089844 C 307.632812 311.636719 308.003906 311.273438 308.453125 311.273438 L 330.820312 311.273438 C 331.269531 311.273438 331.636719 311.636719 331.636719 312.089844 L 331.636719 334.445312 C 331.636719 334.898438 331.269531 335.265625 330.820312 335.265625 " fill-opacity="1" fill-rule="nonzero"/><path fill="#3f327a" d="M 309.273438 291.457031 L 330 291.457031 L 330 270.738281 L 309.273438 270.738281 Z M 330.820312 293.09375 L 308.453125 293.09375 C 308.003906 293.09375 307.632812 292.726562 307.632812 292.277344 L 307.632812 269.917969 C 307.632812 269.464844 308.003906 269.101562 308.453125 269.101562 L 330.820312 269.101562 C 331.269531 269.101562 331.636719 269.464844 331.636719 269.917969 L 331.636719 292.277344 C 331.636719 292.726562 331.269531 293.09375 330.820312 293.09375 " fill-opacity="1" fill-rule="nonzero"/><path fill="#ff5b41" d="M 319.632812 289.785156 C 319.117188 289.785156 318.625 289.539062 318.316406 289.117188 L 310.203125 278.074219 C 309.667969 277.347656 309.824219 276.324219 310.554688 275.789062 C 311.285156 275.253906 312.304688 275.410156 312.839844 276.140625 L 319.496094 285.199219 L 333.089844 262.566406 C 333.554688 261.789062 334.558594 261.539062 335.335938 262.003906 C 336.113281 262.472656 336.363281 263.472656 335.898438 264.25 L 321.039062 288.988281 C 320.753906 289.457031 320.257812 289.757812 319.710938 289.78125 L 319.632812 289.785156 " fill-opacity="1" fill-rule="nonzero"/><path fill="#ff5b41" d="M 319.632812 332.027344 C 319.117188 332.027344 318.625 331.78125 318.316406 331.359375 L 310.203125 320.316406 C 309.667969 319.589844 309.824219 318.566406 310.554688 318.03125 C 311.285156 317.496094 312.304688 317.652344 312.839844 318.382812 L 319.496094 327.441406 L 333.089844 304.808594 C 333.554688 304.03125 334.558594 303.785156 335.335938 304.25 C 336.113281 304.714844 336.363281 305.714844 335.898438 306.492188 L 321.039062 331.234375 C 320.753906 331.703125 320.257812 332 319.710938 332.027344 L 319.632812 332.027344 " fill-opacity="1" fill-rule="nonzero"/><path fill="#ff5b41" d="M 319.632812 247.910156 C 319.117188 247.910156 318.625 247.664062 318.316406 247.242188 L 310.203125 236.203125 C 309.667969 235.472656 309.824219 234.449219 310.554688 233.914062 C 311.285156 233.378906 312.304688 233.535156 312.839844 234.265625 L 319.496094 243.324219 L 333.089844 220.691406 C 333.554688 219.914062 334.558594 219.667969 335.335938 220.132812 C 336.113281 220.597656 336.363281 221.601562 335.898438 222.375 L 321.039062 247.117188 C 320.753906 247.585938 320.257812 247.882812 319.710938 247.90625 L 319.632812 247.910156 " fill-opacity="1" fill-rule="nonzero"/><g clip-path="url(#e2cf35c411)"><path fill="#d2caf6" d="M 957.378906 833.101562 L 2.59375 833.101562 C 1.613281 833.101562 0.8125 831.941406 0.8125 830.5 C 0.8125 829.0625 1.613281 827.898438 2.59375 827.898438 L 141.863281 827.898438 L 141.851562 827.898438 L 338.226562 827.898438 L 338.222656 827.898438 L 397 827.898438 L 396.988281 827.898438 L 564.992188 827.898438 L 564.980469 827.898438 L 612.027344 827.898438 L 612.023438 827.898438 L 796.117188 827.898438 L 796.105469 827.898438 L 957.378906 827.898438 C 958.359375 827.898438 959.160156 829.0625 959.160156 830.5 C 959.160156 831.941406 958.359375 833.101562 957.378906 833.101562 " fill-opacity="1" fill-rule="nonzero"/></g><path fill="#7860dc" d="M 934.046875 396.371094 L 934.046875 374.136719 L 767.101562 374.136719 C 798.996094 381.59375 826.144531 394.375 861.671875 399.0625 C 886.738281 402.289062 910.605469 400.148438 934.046875 396.371094 " fill-opacity="1" fill-rule="nonzero"/><path fill="#6a51d4" d="M 861.671875 399.0625 C 826.144531 394.375 798.996094 381.59375 767.101562 374.136719 L 760.078125 374.136719 L 760.078125 402.828125 L 934.046875 402.828125 L 934.046875 396.371094 C 910.605469 400.148438 886.738281 402.289062 861.671875 399.0625 " fill-opacity="1" fill-rule="nonzero"/><path fill="#ffa42f" d="M 900.28125 425.433594 L 900.28125 402.828125 L 739.160156 402.828125 C 759.277344 406.210938 778.339844 414.984375 798.363281 419.425781 C 831.730469 425.90625 866.296875 427.738281 900.28125 425.433594 " fill-opacity="1" fill-rule="nonzero"/><path fill="#fa9514" d="M 798.363281 419.425781 C 778.339844 414.984375 759.277344 406.210938 739.160156 402.828125 L 726.308594 402.828125 L 726.308594 431.515625 L 900.28125 431.515625 L 900.28125 425.433594 C 866.296875 427.738281 831.730469 425.90625 798.363281 419.425781 " fill-opacity="1" fill-rule="nonzero"/><path fill="#ffffff" d="M 781.480469 395.242188 C 775.675781 395.242188 770.964844 392.214844 770.964844 388.480469 C 770.964844 384.746094 775.675781 381.71875 781.480469 381.71875 C 787.285156 381.71875 791.992188 384.746094 791.992188 388.480469 C 791.992188 392.214844 787.285156 395.242188 781.480469 395.242188 " fill-opacity="1" fill-rule="nonzero"/><path fill="#ffffff" d="M 747.714844 423.929688 C 741.90625 423.929688 737.203125 420.902344 737.203125 417.167969 C 737.203125 413.433594 741.90625 410.410156 747.714844 410.410156 C 753.515625 410.410156 758.230469 413.433594 758.230469 417.167969 C 758.230469 420.902344 753.515625 423.929688 747.714844 423.929688 " fill-opacity="1" fill-rule="nonzero"/><path fill="#ff5b41" d="M 828.6875 445.875 C 865.496094 452.40625 903.546875 453.367188 941.09375 450.863281 L 941.09375 430.601562 L 742.46875 430.601562 L 742.46875 431.246094 C 772.378906 430.941406 800.914062 441.183594 828.6875 445.875 " fill-opacity="1" fill-rule="nonzero"/><path fill="#f23f22" d="M 828.6875 445.875 C 800.914062 441.183594 772.378906 430.941406 742.46875 431.246094 L 742.46875 459.292969 L 941.09375 459.292969 L 941.09375 450.863281 C 903.546875 453.367188 865.496094 452.40625 828.6875 445.875 " fill-opacity="1" fill-rule="nonzero"/><path fill="#ffffff" d="M 766.898438 451.710938 C 760.273438 451.710938 754.898438 448.679688 754.898438 444.945312 C 754.898438 441.210938 760.273438 438.183594 766.898438 438.183594 C 773.53125 438.183594 778.902344 441.210938 778.902344 444.945312 C 778.902344 448.679688 773.53125 451.710938 766.898438 451.710938 " fill-opacity="1" fill-rule="nonzero"/><path fill="#ffd4cd" d="M 179.125 467.097656 L 72.015625 827.898438 L 106.605469 827.898438 L 253.878906 467.097656 L 179.125 467.097656 " fill-opacity="1" fill-rule="nonzero"/><path fill="#f5b7ad" d="M 245.695312 467.097656 L 98.421875 827.898438 L 106.605469 827.898438 L 253.878906 467.097656 L 245.695312 467.097656 " fill-opacity="1" fill-rule="nonzero"/><path fill="#ffd4cd" d="M 773.378906 467.097656 L 880.484375 827.898438 L 845.898438 827.898438 L 698.621094 467.097656 L 773.378906 467.097656 " fill-opacity="1" fill-rule="nonzero"/><path fill="#f5b7ad" d="M 698.621094 467.097656 L 845.898438 827.898438 L 853.335938 827.898438 L 706.066406 467.097656 L 698.621094 467.097656 " fill-opacity="1" fill-rule="nonzero"/><path fill="#ffd4cd" d="M 909.917969 474.90625 L 48.589844 474.90625 C 44.273438 474.90625 40.777344 471.410156 40.777344 467.097656 C 40.777344 462.789062 44.273438 459.292969 48.589844 459.292969 L 909.917969 459.292969 C 914.230469 459.292969 917.730469 462.789062 917.730469 467.097656 C 917.730469 471.410156 914.230469 474.90625 909.917969 474.90625 " fill-opacity="1" fill-rule="nonzero"/><path fill="#f5b7ad" d="M 909.917969 468.957031 L 48.589844 468.957031 C 45.328125 468.957031 42.535156 466.957031 41.367188 464.125 C 40.988281 465.039062 40.777344 466.042969 40.777344 467.097656 C 40.777344 471.410156 44.273438 474.90625 48.589844 474.90625 L 909.917969 474.90625 C 914.230469 474.90625 917.730469 471.410156 917.730469 467.097656 C 917.730469 466.042969 917.515625 465.039062 917.136719 464.125 C 915.96875 466.957031 913.175781 468.957031 909.917969 468.957031 " fill-opacity="1" fill-rule="nonzero"/><path fill="#ffcc46" d="M 334.363281 458.800781 L 81.917969 458.800781 L 81.917969 447.773438 C 81.917969 446.390625 83.039062 445.273438 84.414062 445.273438 L 331.867188 445.273438 C 333.246094 445.273438 334.363281 446.390625 334.363281 447.773438 L 334.363281 458.800781 " fill-opacity="1" fill-rule="nonzero"/><path fill="#ffa42f" d="M 81.917969 458.800781 L 334.363281 458.800781 L 334.363281 453.460938 L 81.917969 453.460938 L 81.917969 458.800781 " fill-opacity="1" fill-rule="nonzero"/><path fill="#ffcc46" d="M 88.484375 445.273438 L 25.609375 321.953125 L 201.496094 321.953125 L 262.234375 445.273438 L 88.484375 445.273438 " fill-opacity="1" fill-rule="nonzero"/><path fill="#ffa42f" d="M 201.496094 321.953125 L 198.59375 321.953125 L 257.492188 441.53125 L 86.574219 441.53125 L 88.484375 445.273438 L 262.234375 445.273438 L 201.496094 321.953125 " fill-opacity="1" fill-rule="nonzero"/><path fill="#ffa42f" d="M 160.222656 382.667969 C 165.128906 392.125 162.941406 402.992188 155.332031 406.933594 C 147.722656 410.878906 137.578125 406.410156 132.671875 396.953125 C 127.765625 387.496094 129.957031 376.632812 137.5625 372.6875 C 145.171875 368.742188 155.316406 373.214844 160.222656 382.667969 " fill-opacity="1" fill-rule="nonzero"/></svg>