<svg xmlns="http://www.w3.org/2000/svg" xmlns:xlink="http://www.w3.org/1999/xlink" width="1290" zoomAndPan="magnify" viewBox="0 0 967.5 63.749997" height="85" preserveAspectRatio="xMidYMid meet" version="1.0"><defs><g/></defs><g fill="#2a7005" fill-opacity="1"><g transform="translate(11.036962, 38.619134)"><g><path d="M 17.671875 -16.140625 L 17.671875 0 L 15.84375 0 L 15.84375 -13.359375 L 9.875 -5.671875 L 3.796875 -13.359375 L 3.796875 0 L 1.96875 0 L 1.96875 -16.140625 L 4.09375 -16.140625 L 9.875 -8.484375 L 15.546875 -16.140625 Z M 17.671875 -16.140625 "/></g></g></g><g fill="#2a7005" fill-opacity="1"><g transform="translate(30.685011, 38.619134)"><g><path d="M 7.015625 -1.46875 C 8.660156 -1.46875 9.835938 -2.148438 10.546875 -3.515625 L 12.546875 -3.515625 C 12.128906 -2.410156 11.460938 -1.515625 10.546875 -0.828125 C 9.628906 -0.148438 8.445312 0.1875 7 0.1875 C 5.15625 0.1875 3.660156 -0.421875 2.515625 -1.640625 C 1.390625 -2.816406 0.828125 -4.300781 0.828125 -6.09375 C 0.828125 -7.894531 1.363281 -9.378906 2.4375 -10.546875 C 3.570312 -11.765625 5.050781 -12.375 6.875 -12.375 C 8.695312 -12.375 10.175781 -11.765625 11.3125 -10.546875 C 12.382812 -9.378906 12.921875 -7.894531 12.921875 -6.09375 L 12.921875 -5.359375 L 2.703125 -5.359375 C 2.835938 -4.242188 3.285156 -3.316406 4.046875 -2.578125 C 4.828125 -1.835938 5.816406 -1.46875 7.015625 -1.46875 Z M 6.875 -10.71875 C 5.75 -10.71875 4.804688 -10.367188 4.046875 -9.671875 C 3.328125 -9.003906 2.890625 -8.132812 2.734375 -7.0625 L 11.015625 -7.0625 C 10.859375 -8.132812 10.421875 -9.003906 9.703125 -9.671875 C 8.941406 -10.367188 8 -10.71875 6.875 -10.71875 Z M 6.875 -10.71875 "/></g></g></g><g fill="#2a7005" fill-opacity="1"><g transform="translate(44.263135, 38.619134)"><g><path d="M 9.1875 -9.71875 L 6.140625 0 L 4.046875 0 L 0.21875 -12.1875 L 2.171875 -12.1875 L 5.09375 -2.265625 L 8.1875 -12.1875 L 10.1875 -12.1875 L 13.28125 -2.265625 L 16.203125 -12.1875 L 18.15625 -12.1875 L 14.328125 0 L 12.234375 0 Z M 9.1875 -9.71875 "/></g></g></g><g fill="#2a7005" fill-opacity="1"><g transform="translate(62.643568, 38.619134)"><g><path d="M 10.390625 0 L 10.390625 -1.90625 C 9.941406 -1.320312 9.398438 -0.828125 8.765625 -0.421875 C 8.140625 -0.015625 7.421875 0.1875 6.609375 0.1875 C 5.796875 0.1875 5.09375 0.078125 4.5 -0.140625 C 3.914062 -0.367188 3.40625 -0.710938 2.96875 -1.171875 C 1.96875 -2.160156 1.46875 -3.46875 1.46875 -5.09375 L 1.46875 -12.1875 L 3.296875 -12.1875 L 3.296875 -5.140625 C 3.296875 -4.023438 3.609375 -3.132812 4.234375 -2.46875 C 4.867188 -1.800781 5.691406 -1.46875 6.703125 -1.46875 C 7.722656 -1.46875 8.59375 -1.804688 9.3125 -2.484375 C 10.03125 -3.179688 10.390625 -4.078125 10.390625 -5.171875 L 10.390625 -12.1875 L 12.21875 -12.1875 L 12.21875 0 Z M 10.390625 0 "/></g></g></g><g fill="#2a7005" fill-opacity="1"><g transform="translate(76.441086, 38.619134)"><g><path d="M 1.578125 -12.1875 L 3.40625 -12.1875 L 3.40625 4.828125 L 1.578125 4.828125 Z M 3.484375 -16.625 L 3.484375 -14.234375 L 1.515625 -14.234375 L 1.515625 -16.625 Z M 3.484375 -16.625 "/></g></g></g><g fill="#2a7005" fill-opacity="1"><g transform="translate(81.438422, 38.619134)"><g><path d="M 10.390625 0 L 10.390625 -1.90625 C 9.941406 -1.320312 9.398438 -0.828125 8.765625 -0.421875 C 8.140625 -0.015625 7.421875 0.1875 6.609375 0.1875 C 5.796875 0.1875 5.09375 0.078125 4.5 -0.140625 C 3.914062 -0.367188 3.40625 -0.710938 2.96875 -1.171875 C 1.96875 -2.160156 1.46875 -3.46875 1.46875 -5.09375 L 1.46875 -12.1875 L 3.296875 -12.1875 L 3.296875 -5.140625 C 3.296875 -4.023438 3.609375 -3.132812 4.234375 -2.46875 C 4.867188 -1.800781 5.691406 -1.46875 6.703125 -1.46875 C 7.722656 -1.46875 8.59375 -1.804688 9.3125 -2.484375 C 10.03125 -3.179688 10.390625 -4.078125 10.390625 -5.171875 L 10.390625 -12.1875 L 12.21875 -12.1875 L 12.21875 0 Z M 10.390625 0 "/></g></g></g><g fill="#2a7005" fill-opacity="1"><g transform="translate(95.235939, 38.619134)"><g><path d="M 11.09375 -1.953125 C 10.113281 -0.523438 8.660156 0.1875 6.734375 0.1875 C 4.972656 0.1875 3.539062 -0.421875 2.4375 -1.640625 C 1.363281 -2.835938 0.828125 -4.320312 0.828125 -6.09375 C 0.828125 -7.863281 1.363281 -9.347656 2.4375 -10.546875 C 3.539062 -11.765625 5.007812 -12.375 6.84375 -12.375 C 8.6875 -12.375 10.101562 -11.65625 11.09375 -10.21875 L 11.09375 -17.0625 L 12.921875 -17.0625 L 12.921875 0 L 11.09375 0 Z M 6.96875 -1.46875 C 8.289062 -1.46875 9.332031 -1.921875 10.09375 -2.828125 C 10.820312 -3.691406 11.1875 -4.78125 11.1875 -6.09375 C 11.1875 -7.40625 10.820312 -8.492188 10.09375 -9.359375 C 9.332031 -10.265625 8.289062 -10.71875 6.96875 -10.71875 C 5.664062 -10.71875 4.609375 -10.265625 3.796875 -9.359375 C 3.035156 -8.492188 2.65625 -7.40625 2.65625 -6.09375 C 2.65625 -4.78125 3.035156 -3.691406 3.796875 -2.828125 C 4.609375 -1.921875 5.664062 -1.46875 6.96875 -1.46875 Z M 6.96875 -1.46875 "/></g></g></g><g fill="#2a7005" fill-opacity="1"><g transform="translate(109.740393, 38.619134)"><g><path d="M 6.953125 -7.390625 L 12.21875 0 L 9.96875 0 L 5.703125 -6.125 L 3.40625 -3.84375 L 3.40625 0 L 1.578125 0 L 1.578125 -17.0625 L 3.40625 -17.0625 L 3.40625 -6.140625 L 9.28125 -12.1875 L 11.84375 -12.1875 Z M 6.953125 -7.390625 "/></g></g></g><g fill="#2a7005" fill-opacity="1"><g transform="translate(121.977767, 38.619134)"><g><path d="M 11.09375 -1.953125 C 10.113281 -0.523438 8.660156 0.1875 6.734375 0.1875 C 4.972656 0.1875 3.539062 -0.421875 2.4375 -1.640625 C 1.363281 -2.835938 0.828125 -4.320312 0.828125 -6.09375 C 0.828125 -7.863281 1.363281 -9.347656 2.4375 -10.546875 C 3.539062 -11.765625 5.007812 -12.375 6.84375 -12.375 C 8.6875 -12.375 10.101562 -11.65625 11.09375 -10.21875 L 11.09375 -12.1875 L 12.921875 -12.1875 L 12.921875 0 L 11.09375 0 Z M 6.96875 -1.46875 C 8.289062 -1.46875 9.332031 -1.921875 10.09375 -2.828125 C 10.820312 -3.691406 11.1875 -4.78125 11.1875 -6.09375 C 11.1875 -7.40625 10.820312 -8.492188 10.09375 -9.359375 C 9.332031 -10.265625 8.289062 -10.71875 6.96875 -10.71875 C 5.664062 -10.71875 4.609375 -10.265625 3.796875 -9.359375 C 3.035156 -8.492188 2.65625 -7.40625 2.65625 -6.09375 C 2.65625 -4.78125 3.035156 -3.691406 3.796875 -2.828125 C 4.609375 -1.921875 5.664062 -1.46875 6.96875 -1.46875 Z M 6.96875 -1.46875 "/></g></g></g><g fill="#2a7005" fill-opacity="1"><g transform="translate(136.48222, 38.619134)"><g><path d="M 3.40625 -12.1875 L 3.40625 -10.28125 C 3.851562 -10.863281 4.390625 -11.359375 5.015625 -11.765625 C 5.648438 -12.171875 6.375 -12.375 7.1875 -12.375 C 8 -12.375 8.695312 -12.257812 9.28125 -12.03125 C 9.875 -11.8125 10.390625 -11.472656 10.828125 -11.015625 C 11.828125 -10.023438 12.328125 -8.71875 12.328125 -7.09375 L 12.328125 0 L 10.5 0 L 10.5 -7.046875 C 10.5 -8.160156 10.179688 -9.050781 9.546875 -9.71875 C 8.921875 -10.382812 8.101562 -10.71875 7.09375 -10.71875 C 6.070312 -10.71875 5.203125 -10.378906 4.484375 -9.703125 C 3.765625 -9.003906 3.40625 -8.109375 3.40625 -7.015625 L 3.40625 0 L 1.578125 0 L 1.578125 -12.1875 Z M 3.40625 -12.1875 "/></g></g></g><g fill="#2a7005" fill-opacity="1"><g transform="translate(150.279738, 38.619134)"><g/></g></g><g fill="#2a7005" fill-opacity="1"><g transform="translate(155.472089, 38.619134)"><g><path d="M 8.015625 -12.375 L 8.015625 -10.546875 L 7.796875 -10.546875 C 6.484375 -10.546875 5.410156 -10.019531 4.578125 -8.96875 C 3.796875 -7.957031 3.40625 -6.753906 3.40625 -5.359375 L 3.40625 0 L 1.578125 0 L 1.578125 -12.1875 L 3.40625 -12.1875 L 3.40625 -9.1875 C 3.800781 -10.457031 4.648438 -11.394531 5.953125 -12 C 6.484375 -12.25 7.128906 -12.375 7.890625 -12.375 Z M 8.015625 -12.375 "/></g></g></g><g fill="#2a7005" fill-opacity="1"><g transform="translate(163.88224, 38.619134)"><g><path d="M 7.015625 -1.46875 C 8.660156 -1.46875 9.835938 -2.148438 10.546875 -3.515625 L 12.546875 -3.515625 C 12.128906 -2.410156 11.460938 -1.515625 10.546875 -0.828125 C 9.628906 -0.148438 8.445312 0.1875 7 0.1875 C 5.15625 0.1875 3.660156 -0.421875 2.515625 -1.640625 C 1.390625 -2.816406 0.828125 -4.300781 0.828125 -6.09375 C 0.828125 -7.894531 1.363281 -9.378906 2.4375 -10.546875 C 3.570312 -11.765625 5.050781 -12.375 6.875 -12.375 C 8.695312 -12.375 10.175781 -11.765625 11.3125 -10.546875 C 12.382812 -9.378906 12.921875 -7.894531 12.921875 -6.09375 L 12.921875 -5.359375 L 2.703125 -5.359375 C 2.835938 -4.242188 3.285156 -3.316406 4.046875 -2.578125 C 4.828125 -1.835938 5.816406 -1.46875 7.015625 -1.46875 Z M 6.875 -10.71875 C 5.75 -10.71875 4.804688 -10.367188 4.046875 -9.671875 C 3.328125 -9.003906 2.890625 -8.132812 2.734375 -7.0625 L 11.015625 -7.0625 C 10.859375 -8.132812 10.421875 -9.003906 9.703125 -9.671875 C 8.941406 -10.367188 8 -10.71875 6.875 -10.71875 Z M 6.875 -10.71875 "/></g></g></g><g fill="#2a7005" fill-opacity="1"><g transform="translate(177.460364, 38.619134)"><g><path d="M 3.40625 -10.328125 C 4.21875 -11.691406 5.457031 -12.375 7.125 -12.375 C 7.9375 -12.375 8.6875 -12.160156 9.375 -11.734375 C 10.0625 -11.304688 10.601562 -10.703125 11 -9.921875 C 11.550781 -10.941406 12.410156 -11.671875 13.578125 -12.109375 C 14.046875 -12.285156 14.578125 -12.375 15.171875 -12.375 C 15.765625 -12.375 16.332031 -12.253906 16.875 -12.015625 C 17.425781 -11.785156 17.910156 -11.453125 18.328125 -11.015625 C 19.234375 -10.046875 19.6875 -8.828125 19.6875 -7.359375 L 19.6875 0 L 17.859375 0 L 17.859375 -7.3125 C 17.859375 -8.320312 17.578125 -9.148438 17.015625 -9.796875 C 16.441406 -10.410156 15.71875 -10.71875 14.84375 -10.71875 C 13.914062 -10.71875 13.144531 -10.421875 12.53125 -9.828125 C 11.875 -9.203125 11.546875 -8.351562 11.546875 -7.28125 L 11.546875 0 L 9.71875 0 L 9.71875 -7.3125 C 9.71875 -8.320312 9.4375 -9.148438 8.875 -9.796875 C 8.300781 -10.410156 7.578125 -10.71875 6.703125 -10.71875 C 5.773438 -10.71875 5.003906 -10.421875 4.390625 -9.828125 C 3.734375 -9.203125 3.40625 -8.351562 3.40625 -7.28125 L 3.40625 0 L 1.578125 0 L 1.578125 -12.1875 L 3.40625 -12.1875 Z M 3.40625 -10.328125 "/></g></g></g><g fill="#2a7005" fill-opacity="1"><g transform="translate(198.61981, 38.619134)"><g><path d="M 11.09375 -1.953125 C 10.113281 -0.523438 8.660156 0.1875 6.734375 0.1875 C 4.972656 0.1875 3.539062 -0.421875 2.4375 -1.640625 C 1.363281 -2.835938 0.828125 -4.320312 0.828125 -6.09375 C 0.828125 -7.863281 1.363281 -9.347656 2.4375 -10.546875 C 3.539062 -11.765625 5.007812 -12.375 6.84375 -12.375 C 8.6875 -12.375 10.101562 -11.65625 11.09375 -10.21875 L 11.09375 -12.1875 L 12.921875 -12.1875 L 12.921875 0 L 11.09375 0 Z M 6.96875 -1.46875 C 8.289062 -1.46875 9.332031 -1.921875 10.09375 -2.828125 C 10.820312 -3.691406 11.1875 -4.78125 11.1875 -6.09375 C 11.1875 -7.40625 10.820312 -8.492188 10.09375 -9.359375 C 9.332031 -10.265625 8.289062 -10.71875 6.96875 -10.71875 C 5.664062 -10.71875 4.609375 -10.265625 3.796875 -9.359375 C 3.035156 -8.492188 2.65625 -7.40625 2.65625 -6.09375 C 2.65625 -4.78125 3.035156 -3.691406 3.796875 -2.828125 C 4.609375 -1.921875 5.664062 -1.46875 6.96875 -1.46875 Z M 6.96875 -1.46875 "/></g></g></g><g fill="#2a7005" fill-opacity="1"><g transform="translate(213.124253, 38.619134)"><g><path d="M 1.578125 -12.1875 L 3.40625 -12.1875 L 3.40625 4.828125 L 1.578125 4.828125 Z M 3.484375 -16.625 L 3.484375 -14.234375 L 1.515625 -14.234375 L 1.515625 -16.625 Z M 3.484375 -16.625 "/></g></g></g><g fill="#2a7005" fill-opacity="1"><g transform="translate(218.121589, 38.619134)"><g><path d="M 11.09375 -1.953125 C 10.113281 -0.523438 8.660156 0.1875 6.734375 0.1875 C 4.972656 0.1875 3.539062 -0.421875 2.4375 -1.640625 C 1.363281 -2.835938 0.828125 -4.320312 0.828125 -6.09375 C 0.828125 -7.863281 1.363281 -9.347656 2.4375 -10.546875 C 3.539062 -11.765625 5.007812 -12.375 6.84375 -12.375 C 8.6875 -12.375 10.101562 -11.65625 11.09375 -10.21875 L 11.09375 -12.1875 L 12.921875 -12.1875 L 12.921875 0 L 11.09375 0 Z M 6.96875 -1.46875 C 8.289062 -1.46875 9.332031 -1.921875 10.09375 -2.828125 C 10.820312 -3.691406 11.1875 -4.78125 11.1875 -6.09375 C 11.1875 -7.40625 10.820312 -8.492188 10.09375 -9.359375 C 9.332031 -10.265625 8.289062 -10.71875 6.96875 -10.71875 C 5.664062 -10.71875 4.609375 -10.265625 3.796875 -9.359375 C 3.035156 -8.492188 2.65625 -7.40625 2.65625 -6.09375 C 2.65625 -4.78125 3.035156 -3.691406 3.796875 -2.828125 C 4.609375 -1.921875 5.664062 -1.46875 6.96875 -1.46875 Z M 6.96875 -1.46875 "/></g></g></g><g fill="#2a7005" fill-opacity="1"><g transform="translate(232.626032, 38.619134)"><g/></g></g><g fill="#2a7005" fill-opacity="1"><g transform="translate(237.818394, 38.619134)"><g><path d="M 3.40625 -10.328125 C 4.21875 -11.691406 5.457031 -12.375 7.125 -12.375 C 7.9375 -12.375 8.6875 -12.160156 9.375 -11.734375 C 10.0625 -11.304688 10.601562 -10.703125 11 -9.921875 C 11.550781 -10.941406 12.410156 -11.671875 13.578125 -12.109375 C 14.046875 -12.285156 14.578125 -12.375 15.171875 -12.375 C 15.765625 -12.375 16.332031 -12.253906 16.875 -12.015625 C 17.425781 -11.785156 17.910156 -11.453125 18.328125 -11.015625 C 19.234375 -10.046875 19.6875 -8.828125 19.6875 -7.359375 L 19.6875 0 L 17.859375 0 L 17.859375 -7.3125 C 17.859375 -8.320312 17.578125 -9.148438 17.015625 -9.796875 C 16.441406 -10.410156 15.71875 -10.71875 14.84375 -10.71875 C 13.914062 -10.71875 13.144531 -10.421875 12.53125 -9.828125 C 11.875 -9.203125 11.546875 -8.351562 11.546875 -7.28125 L 11.546875 0 L 9.71875 0 L 9.71875 -7.3125 C 9.71875 -8.320312 9.4375 -9.148438 8.875 -9.796875 C 8.300781 -10.410156 7.578125 -10.71875 6.703125 -10.71875 C 5.773438 -10.71875 5.003906 -10.421875 4.390625 -9.828125 C 3.734375 -9.203125 3.40625 -8.351562 3.40625 -7.28125 L 3.40625 0 L 1.578125 0 L 1.578125 -12.1875 L 3.40625 -12.1875 Z M 3.40625 -10.328125 "/></g></g></g><g fill="#2a7005" fill-opacity="1"><g transform="translate(258.977851, 38.619134)"><g><path d="M 11.09375 -1.953125 C 10.113281 -0.523438 8.660156 0.1875 6.734375 0.1875 C 4.972656 0.1875 3.539062 -0.421875 2.4375 -1.640625 C 1.363281 -2.835938 0.828125 -4.320312 0.828125 -6.09375 C 0.828125 -7.863281 1.363281 -9.347656 2.4375 -10.546875 C 3.539062 -11.765625 5.007812 -12.375 6.84375 -12.375 C 8.6875 -12.375 10.101562 -11.65625 11.09375 -10.21875 L 11.09375 -12.1875 L 12.921875 -12.1875 L 12.921875 0 L 11.09375 0 Z M 6.96875 -1.46875 C 8.289062 -1.46875 9.332031 -1.921875 10.09375 -2.828125 C 10.820312 -3.691406 11.1875 -4.78125 11.1875 -6.09375 C 11.1875 -7.40625 10.820312 -8.492188 10.09375 -9.359375 C 9.332031 -10.265625 8.289062 -10.71875 6.96875 -10.71875 C 5.664062 -10.71875 4.609375 -10.265625 3.796875 -9.359375 C 3.035156 -8.492188 2.65625 -7.40625 2.65625 -6.09375 C 2.65625 -4.78125 3.035156 -3.691406 3.796875 -2.828125 C 4.609375 -1.921875 5.664062 -1.46875 6.96875 -1.46875 Z M 6.96875 -1.46875 "/></g></g></g><g fill="#2a7005" fill-opacity="1"><g transform="translate(273.482294, 38.619134)"><g><path d="M 8.75 -8.921875 C 8.582031 -10.191406 7.5625 -10.828125 5.6875 -10.828125 C 3.8125 -10.828125 2.875 -10.238281 2.875 -9.0625 C 2.875 -8.582031 3.070312 -8.210938 3.46875 -7.953125 C 3.875 -7.703125 4.375 -7.492188 4.96875 -7.328125 C 5.570312 -7.171875 6.226562 -7.019531 6.9375 -6.875 C 7.644531 -6.738281 8.296875 -6.546875 8.890625 -6.296875 C 9.492188 -6.046875 9.992188 -5.703125 10.390625 -5.265625 C 10.796875 -4.828125 11 -4.226562 11 -3.46875 C 11 -2.28125 10.550781 -1.375 9.65625 -0.75 C 8.757812 -0.125 7.546875 0.1875 6.015625 0.1875 C 4.390625 0.1875 3.097656 -0.21875 2.140625 -1.03125 C 1.265625 -1.738281 0.796875 -2.671875 0.734375 -3.828125 L 2.625 -3.828125 C 2.738281 -2.703125 3.375 -1.945312 4.53125 -1.5625 C 4.957031 -1.425781 5.375 -1.359375 5.78125 -1.359375 C 6.195312 -1.359375 6.582031 -1.382812 6.9375 -1.4375 C 7.300781 -1.488281 7.65625 -1.578125 8 -1.703125 C 8.78125 -2.015625 9.171875 -2.546875 9.171875 -3.296875 C 9.171875 -3.796875 8.96875 -4.175781 8.5625 -4.4375 C 8.164062 -4.707031 7.664062 -4.925781 7.0625 -5.09375 C 6.46875 -5.269531 5.816406 -5.425781 5.109375 -5.5625 C 4.398438 -5.707031 3.742188 -5.898438 3.140625 -6.140625 C 2.546875 -6.390625 2.046875 -6.722656 1.640625 -7.140625 C 1.242188 -7.566406 1.046875 -8.148438 1.046875 -8.890625 C 1.046875 -9.992188 1.445312 -10.847656 2.25 -11.453125 C 3.0625 -12.066406 4.253906 -12.375 5.828125 -12.375 C 7.316406 -12.375 8.492188 -12.019531 9.359375 -11.3125 C 10.078125 -10.707031 10.492188 -9.910156 10.609375 -8.921875 Z M 8.75 -8.921875 "/></g></g></g><g fill="#2a7005" fill-opacity="1"><g transform="translate(285.232113, 38.619134)"><g><path d="M 1.578125 -12.1875 L 3.40625 -12.1875 L 3.40625 4.828125 L 1.578125 4.828125 Z M 3.484375 -16.625 L 3.484375 -14.234375 L 1.515625 -14.234375 L 1.515625 -16.625 Z M 3.484375 -16.625 "/></g></g></g><g fill="#2a7005" fill-opacity="1"><g transform="translate(290.229449, 38.619134)"><g><path d="M 1.578125 -12.1875 L 3.40625 -12.1875 L 3.40625 0 L 1.578125 0 Z M 3.484375 -16.625 L 3.484375 -14.234375 L 1.515625 -14.234375 L 1.515625 -16.625 Z M 3.484375 -16.625 "/></g></g></g><g fill="#2a7005" fill-opacity="1"><g transform="translate(295.226785, 38.619134)"><g><path d="M 11.09375 -1.953125 C 10.113281 -0.523438 8.660156 0.1875 6.734375 0.1875 C 4.972656 0.1875 3.539062 -0.421875 2.4375 -1.640625 C 1.363281 -2.835938 0.828125 -4.320312 0.828125 -6.09375 C 0.828125 -7.863281 1.363281 -9.347656 2.4375 -10.546875 C 3.539062 -11.765625 5.007812 -12.375 6.84375 -12.375 C 8.6875 -12.375 10.101562 -11.65625 11.09375 -10.21875 L 11.09375 -17.0625 L 12.921875 -17.0625 L 12.921875 0 L 11.09375 0 Z M 6.96875 -1.46875 C 8.289062 -1.46875 9.332031 -1.921875 10.09375 -2.828125 C 10.820312 -3.691406 11.1875 -4.78125 11.1875 -6.09375 C 11.1875 -7.40625 10.820312 -8.492188 10.09375 -9.359375 C 9.332031 -10.265625 8.289062 -10.71875 6.96875 -10.71875 C 5.664062 -10.71875 4.609375 -10.265625 3.796875 -9.359375 C 3.035156 -8.492188 2.65625 -7.40625 2.65625 -6.09375 C 2.65625 -4.78125 3.035156 -3.691406 3.796875 -2.828125 C 4.609375 -1.921875 5.664062 -1.46875 6.96875 -1.46875 Z M 6.96875 -1.46875 "/></g></g></g><g fill="#2a7005" fill-opacity="1"><g transform="translate(309.731228, 38.619134)"><g/></g></g><g fill="#2a7005" fill-opacity="1"><g transform="translate(314.923591, 38.619134)"><g><path d="M 4.828125 4.828125 L 2.859375 4.828125 L 5.0625 -0.171875 L 0.09375 -12.1875 L 2.125 -12.1875 L 6.046875 -2.1875 L 10.046875 -12.1875 L 12.046875 -12.1875 Z M 4.828125 4.828125 "/></g></g></g><g fill="#2a7005" fill-opacity="1"><g transform="translate(327.039073, 38.619134)"><g><path d="M 11.09375 -1.953125 C 10.113281 -0.523438 8.660156 0.1875 6.734375 0.1875 C 4.972656 0.1875 3.539062 -0.421875 2.4375 -1.640625 C 1.363281 -2.835938 0.828125 -4.320312 0.828125 -6.09375 C 0.828125 -7.863281 1.363281 -9.347656 2.4375 -10.546875 C 3.539062 -11.765625 5.007812 -12.375 6.84375 -12.375 C 8.6875 -12.375 10.101562 -11.65625 11.09375 -10.21875 L 11.09375 -12.1875 L 12.921875 -12.1875 L 12.921875 0 L 11.09375 0 Z M 6.96875 -1.46875 C 8.289062 -1.46875 9.332031 -1.921875 10.09375 -2.828125 C 10.820312 -3.691406 11.1875 -4.78125 11.1875 -6.09375 C 11.1875 -7.40625 10.820312 -8.492188 10.09375 -9.359375 C 9.332031 -10.265625 8.289062 -10.71875 6.96875 -10.71875 C 5.664062 -10.71875 4.609375 -10.265625 3.796875 -9.359375 C 3.035156 -8.492188 2.65625 -7.40625 2.65625 -6.09375 C 2.65625 -4.78125 3.035156 -3.691406 3.796875 -2.828125 C 4.609375 -1.921875 5.664062 -1.46875 6.96875 -1.46875 Z M 6.96875 -1.46875 "/></g></g></g><g fill="#2a7005" fill-opacity="1"><g transform="translate(341.543516, 38.619134)"><g><path d="M 3.40625 -12.1875 L 3.40625 -10.28125 C 3.851562 -10.863281 4.390625 -11.359375 5.015625 -11.765625 C 5.648438 -12.171875 6.375 -12.375 7.1875 -12.375 C 8 -12.375 8.695312 -12.257812 9.28125 -12.03125 C 9.875 -11.8125 10.390625 -11.472656 10.828125 -11.015625 C 11.828125 -10.023438 12.328125 -8.71875 12.328125 -7.09375 L 12.328125 0 L 10.5 0 L 10.5 -7.046875 C 10.5 -8.160156 10.179688 -9.050781 9.546875 -9.71875 C 8.921875 -10.382812 8.101562 -10.71875 7.09375 -10.71875 C 6.070312 -10.71875 5.203125 -10.378906 4.484375 -9.703125 C 3.765625 -9.003906 3.40625 -8.109375 3.40625 -7.015625 L 3.40625 0 L 1.578125 0 L 1.578125 -12.1875 Z M 3.40625 -12.1875 "/></g></g></g><g fill="#2a7005" fill-opacity="1"><g transform="translate(355.341022, 38.619134)"><g><path d="M 11.09375 -10.234375 L 11.09375 -12.1875 L 12.921875 -12.1875 L 12.921875 -0.359375 C 12.921875 1.390625 12.421875 2.722656 11.421875 3.640625 C 10.421875 4.554688 9.070312 5.015625 7.375 5.015625 C 5.6875 5.015625 4.367188 4.691406 3.421875 4.046875 C 2.472656 3.398438 1.828125 2.539062 1.484375 1.46875 L 3.515625 1.46875 C 4.035156 2.726562 5.21875 3.359375 7.0625 3.359375 C 8.476562 3.359375 9.503906 3.03125 10.140625 2.375 C 10.773438 1.726562 11.09375 0.773438 11.09375 -0.484375 L 11.09375 -2.171875 C 10.101562 -0.722656 8.648438 0 6.734375 0 C 4.972656 0 3.539062 -0.597656 2.4375 -1.796875 C 1.363281 -2.972656 0.828125 -4.4375 0.828125 -6.1875 C 0.828125 -7.945312 1.363281 -9.410156 2.4375 -10.578125 C 3.539062 -11.773438 5.015625 -12.375 6.859375 -12.375 C 8.703125 -12.375 10.113281 -11.660156 11.09375 -10.234375 Z M 6.96875 -1.65625 C 7.632812 -1.65625 8.226562 -1.769531 8.75 -2 C 9.269531 -2.238281 9.71875 -2.5625 10.09375 -2.96875 C 10.820312 -3.8125 11.1875 -4.882812 11.1875 -6.1875 C 11.1875 -7.488281 10.820312 -8.5625 10.09375 -9.40625 C 9.289062 -10.28125 8.25 -10.71875 6.96875 -10.71875 C 5.65625 -10.71875 4.597656 -10.28125 3.796875 -9.40625 C 3.035156 -8.539062 2.65625 -7.46875 2.65625 -6.1875 C 2.65625 -4.90625 3.035156 -3.832031 3.796875 -2.96875 C 4.597656 -2.09375 5.65625 -1.65625 6.96875 -1.65625 Z M 6.96875 -1.65625 "/></g></g></g><g fill="#2a7005" fill-opacity="1"><g transform="translate(369.845465, 38.619134)"><g/></g></g><g fill="#2a7005" fill-opacity="1"><g transform="translate(375.037827, 38.619134)"><g><path d="M 3.40625 -10.21875 C 4.40625 -11.65625 5.863281 -12.375 7.78125 -12.375 C 9.53125 -12.375 10.953125 -11.765625 12.046875 -10.546875 C 13.128906 -9.347656 13.671875 -7.863281 13.671875 -6.09375 C 13.671875 -4.320312 13.128906 -2.835938 12.046875 -1.640625 C 10.953125 -0.421875 9.484375 0.1875 7.640625 0.1875 C 5.796875 0.1875 4.382812 -0.523438 3.40625 -1.953125 L 3.40625 0 L 1.578125 0 L 1.578125 -17.0625 L 3.40625 -17.0625 Z M 7.53125 -1.46875 C 8.832031 -1.46875 9.890625 -1.921875 10.703125 -2.828125 C 11.460938 -3.691406 11.84375 -4.78125 11.84375 -6.09375 C 11.84375 -7.40625 11.460938 -8.492188 10.703125 -9.359375 C 9.890625 -10.265625 8.832031 -10.71875 7.53125 -10.71875 C 6.21875 -10.71875 5.175781 -10.265625 4.40625 -9.359375 C 3.675781 -8.492188 3.3125 -7.40625 3.3125 -6.09375 C 3.3125 -4.78125 3.675781 -3.691406 4.40625 -2.828125 C 5.175781 -1.921875 6.21875 -1.46875 7.53125 -1.46875 Z M 7.53125 -1.46875 "/></g></g></g><g fill="#2a7005" fill-opacity="1"><g transform="translate(389.517924, 38.619134)"><g><path d="M 7.015625 -1.46875 C 8.660156 -1.46875 9.835938 -2.148438 10.546875 -3.515625 L 12.546875 -3.515625 C 12.128906 -2.410156 11.460938 -1.515625 10.546875 -0.828125 C 9.628906 -0.148438 8.445312 0.1875 7 0.1875 C 5.15625 0.1875 3.660156 -0.421875 2.515625 -1.640625 C 1.390625 -2.816406 0.828125 -4.300781 0.828125 -6.09375 C 0.828125 -7.894531 1.363281 -9.378906 2.4375 -10.546875 C 3.570312 -11.765625 5.050781 -12.375 6.875 -12.375 C 8.695312 -12.375 10.175781 -11.765625 11.3125 -10.546875 C 12.382812 -9.378906 12.921875 -7.894531 12.921875 -6.09375 L 12.921875 -5.359375 L 2.703125 -5.359375 C 2.835938 -4.242188 3.285156 -3.316406 4.046875 -2.578125 C 4.828125 -1.835938 5.816406 -1.46875 7.015625 -1.46875 Z M 6.875 -10.71875 C 5.75 -10.71875 4.804688 -10.367188 4.046875 -9.671875 C 3.328125 -9.003906 2.890625 -8.132812 2.734375 -7.0625 L 11.015625 -7.0625 C 10.859375 -8.132812 10.421875 -9.003906 9.703125 -9.671875 C 8.941406 -10.367188 8 -10.71875 6.875 -10.71875 Z M 6.875 -10.71875 "/></g></g></g><g fill="#2a7005" fill-opacity="1"><g transform="translate(403.096059, 38.619134)"><g><path d="M 8.015625 -12.375 L 8.015625 -10.546875 L 7.796875 -10.546875 C 6.484375 -10.546875 5.410156 -10.019531 4.578125 -8.96875 C 3.796875 -7.957031 3.40625 -6.753906 3.40625 -5.359375 L 3.40625 0 L 1.578125 0 L 1.578125 -12.1875 L 3.40625 -12.1875 L 3.40625 -9.1875 C 3.800781 -10.457031 4.648438 -11.394531 5.953125 -12 C 6.484375 -12.25 7.128906 -12.375 7.890625 -12.375 Z M 8.015625 -12.375 "/></g></g></g><g fill="#2a7005" fill-opacity="1"><g transform="translate(411.506221, 38.619134)"><g><path d="M 1.578125 -12.1875 L 3.40625 -12.1875 L 3.40625 0 L 1.578125 0 Z M 3.484375 -16.625 L 3.484375 -14.234375 L 1.515625 -14.234375 L 1.515625 -16.625 Z M 3.484375 -16.625 "/></g></g></g><g fill="#2a7005" fill-opacity="1"><g transform="translate(416.503557, 38.619134)"><g><path d="M 3.40625 -10.328125 C 4.21875 -11.691406 5.457031 -12.375 7.125 -12.375 C 7.9375 -12.375 8.6875 -12.160156 9.375 -11.734375 C 10.0625 -11.304688 10.601562 -10.703125 11 -9.921875 C 11.550781 -10.941406 12.410156 -11.671875 13.578125 -12.109375 C 14.046875 -12.285156 14.578125 -12.375 15.171875 -12.375 C 15.765625 -12.375 16.332031 -12.253906 16.875 -12.015625 C 17.425781 -11.785156 17.910156 -11.453125 18.328125 -11.015625 C 19.234375 -10.046875 19.6875 -8.828125 19.6875 -7.359375 L 19.6875 0 L 17.859375 0 L 17.859375 -7.3125 C 17.859375 -8.320312 17.578125 -9.148438 17.015625 -9.796875 C 16.441406 -10.410156 15.71875 -10.71875 14.84375 -10.71875 C 13.914062 -10.71875 13.144531 -10.421875 12.53125 -9.828125 C 11.875 -9.203125 11.546875 -8.351562 11.546875 -7.28125 L 11.546875 0 L 9.71875 0 L 9.71875 -7.3125 C 9.71875 -8.320312 9.4375 -9.148438 8.875 -9.796875 C 8.300781 -10.410156 7.578125 -10.71875 6.703125 -10.71875 C 5.773438 -10.71875 5.003906 -10.421875 4.390625 -9.828125 C 3.734375 -9.203125 3.40625 -8.351562 3.40625 -7.28125 L 3.40625 0 L 1.578125 0 L 1.578125 -12.1875 L 3.40625 -12.1875 Z M 3.40625 -10.328125 "/></g></g></g><g fill="#2a7005" fill-opacity="1"><g transform="translate(437.663014, 38.619134)"><g><path d="M 11.09375 -1.953125 C 10.113281 -0.523438 8.660156 0.1875 6.734375 0.1875 C 4.972656 0.1875 3.539062 -0.421875 2.4375 -1.640625 C 1.363281 -2.835938 0.828125 -4.320312 0.828125 -6.09375 C 0.828125 -7.863281 1.363281 -9.347656 2.4375 -10.546875 C 3.539062 -11.765625 5.007812 -12.375 6.84375 -12.375 C 8.6875 -12.375 10.101562 -11.65625 11.09375 -10.21875 L 11.09375 -12.1875 L 12.921875 -12.1875 L 12.921875 0 L 11.09375 0 Z M 6.96875 -1.46875 C 8.289062 -1.46875 9.332031 -1.921875 10.09375 -2.828125 C 10.820312 -3.691406 11.1875 -4.78125 11.1875 -6.09375 C 11.1875 -7.40625 10.820312 -8.492188 10.09375 -9.359375 C 9.332031 -10.265625 8.289062 -10.71875 6.96875 -10.71875 C 5.664062 -10.71875 4.609375 -10.265625 3.796875 -9.359375 C 3.035156 -8.492188 2.65625 -7.40625 2.65625 -6.09375 C 2.65625 -4.78125 3.035156 -3.691406 3.796875 -2.828125 C 4.609375 -1.921875 5.664062 -1.46875 6.96875 -1.46875 Z M 6.96875 -1.46875 "/></g></g></g><g fill="#2a7005" fill-opacity="1"><g transform="translate(452.167457, 38.619134)"><g><path d="M 3.40625 -12.1875 L 3.40625 -10.28125 C 3.851562 -10.863281 4.390625 -11.359375 5.015625 -11.765625 C 5.648438 -12.171875 6.375 -12.375 7.1875 -12.375 C 8 -12.375 8.695312 -12.257812 9.28125 -12.03125 C 9.875 -11.8125 10.390625 -11.472656 10.828125 -11.015625 C 11.828125 -10.023438 12.328125 -8.71875 12.328125 -7.09375 L 12.328125 0 L 10.5 0 L 10.5 -7.046875 C 10.5 -8.160156 10.179688 -9.050781 9.546875 -9.71875 C 8.921875 -10.382812 8.101562 -10.71875 7.09375 -10.71875 C 6.070312 -10.71875 5.203125 -10.378906 4.484375 -9.703125 C 3.765625 -9.003906 3.40625 -8.109375 3.40625 -7.015625 L 3.40625 0 L 1.578125 0 L 1.578125 -12.1875 Z M 3.40625 -12.1875 "/></g></g></g><g fill="#2a7005" fill-opacity="1"><g transform="translate(465.964963, 38.619134)"><g><path d="M 1.6875 -1.953125 L 4.078125 -1.953125 L 1.921875 3.234375 L 0.265625 3.234375 Z M 1.6875 -1.953125 "/></g></g></g><g fill="#2a7005" fill-opacity="1"><g transform="translate(471.327962, 38.619134)"><g/></g></g><g fill="#2a7005" fill-opacity="1"><g transform="translate(476.520324, 38.619134)"><g><path d="M 3.40625 -10.21875 C 4.40625 -11.65625 5.863281 -12.375 7.78125 -12.375 C 9.53125 -12.375 10.953125 -11.765625 12.046875 -10.546875 C 13.128906 -9.347656 13.671875 -7.863281 13.671875 -6.09375 C 13.671875 -4.320312 13.128906 -2.835938 12.046875 -1.640625 C 10.953125 -0.421875 9.484375 0.1875 7.640625 0.1875 C 5.796875 0.1875 4.382812 -0.523438 3.40625 -1.953125 L 3.40625 0 L 1.578125 0 L 1.578125 -17.0625 L 3.40625 -17.0625 Z M 7.53125 -1.46875 C 8.832031 -1.46875 9.890625 -1.921875 10.703125 -2.828125 C 11.460938 -3.691406 11.84375 -4.78125 11.84375 -6.09375 C 11.84375 -7.40625 11.460938 -8.492188 10.703125 -9.359375 C 9.890625 -10.265625 8.832031 -10.71875 7.53125 -10.71875 C 6.21875 -10.71875 5.175781 -10.265625 4.40625 -9.359375 C 3.675781 -8.492188 3.3125 -7.40625 3.3125 -6.09375 C 3.3125 -4.78125 3.675781 -3.691406 4.40625 -2.828125 C 5.175781 -1.921875 6.21875 -1.46875 7.53125 -1.46875 Z M 7.53125 -1.46875 "/></g></g></g><g fill="#2a7005" fill-opacity="1"><g transform="translate(491.000377, 38.619134)"><g><path d="M 7.015625 -1.46875 C 8.660156 -1.46875 9.835938 -2.148438 10.546875 -3.515625 L 12.546875 -3.515625 C 12.128906 -2.410156 11.460938 -1.515625 10.546875 -0.828125 C 9.628906 -0.148438 8.445312 0.1875 7 0.1875 C 5.15625 0.1875 3.660156 -0.421875 2.515625 -1.640625 C 1.390625 -2.816406 0.828125 -4.300781 0.828125 -6.09375 C 0.828125 -7.894531 1.363281 -9.378906 2.4375 -10.546875 C 3.570312 -11.765625 5.050781 -12.375 6.875 -12.375 C 8.695312 -12.375 10.175781 -11.765625 11.3125 -10.546875 C 12.382812 -9.378906 12.921875 -7.894531 12.921875 -6.09375 L 12.921875 -5.359375 L 2.703125 -5.359375 C 2.835938 -4.242188 3.285156 -3.316406 4.046875 -2.578125 C 4.828125 -1.835938 5.816406 -1.46875 7.015625 -1.46875 Z M 6.875 -10.71875 C 5.75 -10.71875 4.804688 -10.367188 4.046875 -9.671875 C 3.328125 -9.003906 2.890625 -8.132812 2.734375 -7.0625 L 11.015625 -7.0625 C 10.859375 -8.132812 10.421875 -9.003906 9.703125 -9.671875 C 8.941406 -10.367188 8 -10.71875 6.875 -10.71875 Z M 6.875 -10.71875 "/></g></g></g><g fill="#2a7005" fill-opacity="1"><g transform="translate(504.578512, 38.619134)"><g><path d="M 8.015625 -12.375 L 8.015625 -10.546875 L 7.796875 -10.546875 C 6.484375 -10.546875 5.410156 -10.019531 4.578125 -8.96875 C 3.796875 -7.957031 3.40625 -6.753906 3.40625 -5.359375 L 3.40625 0 L 1.578125 0 L 1.578125 -12.1875 L 3.40625 -12.1875 L 3.40625 -9.1875 C 3.800781 -10.457031 4.648438 -11.394531 5.953125 -12 C 6.484375 -12.25 7.128906 -12.375 7.890625 -12.375 Z M 8.015625 -12.375 "/></g></g></g><g fill="#2a7005" fill-opacity="1"><g transform="translate(512.988673, 38.619134)"><g><path d="M 2.90625 0 L 2.90625 -10.578125 L 0.421875 -10.578125 L 0.421875 -12.1875 L 2.90625 -12.1875 L 2.90625 -16.546875 L 4.734375 -16.546875 L 4.734375 -12.1875 L 7.53125 -12.1875 L 7.53125 -10.578125 L 4.734375 -10.578125 L 4.734375 0 Z M 2.90625 0 "/></g></g></g><g fill="#2a7005" fill-opacity="1"><g transform="translate(520.935659, 38.619134)"><g><path d="M 11.09375 -1.953125 C 10.113281 -0.523438 8.660156 0.1875 6.734375 0.1875 C 4.972656 0.1875 3.539062 -0.421875 2.4375 -1.640625 C 1.363281 -2.835938 0.828125 -4.320312 0.828125 -6.09375 C 0.828125 -7.863281 1.363281 -9.347656 2.4375 -10.546875 C 3.539062 -11.765625 5.007812 -12.375 6.84375 -12.375 C 8.6875 -12.375 10.101562 -11.65625 11.09375 -10.21875 L 11.09375 -12.1875 L 12.921875 -12.1875 L 12.921875 0 L 11.09375 0 Z M 6.96875 -1.46875 C 8.289062 -1.46875 9.332031 -1.921875 10.09375 -2.828125 C 10.820312 -3.691406 11.1875 -4.78125 11.1875 -6.09375 C 11.1875 -7.40625 10.820312 -8.492188 10.09375 -9.359375 C 9.332031 -10.265625 8.289062 -10.71875 6.96875 -10.71875 C 5.664062 -10.71875 4.609375 -10.265625 3.796875 -9.359375 C 3.035156 -8.492188 2.65625 -7.40625 2.65625 -6.09375 C 2.65625 -4.78125 3.035156 -3.691406 3.796875 -2.828125 C 4.609375 -1.921875 5.664062 -1.46875 6.96875 -1.46875 Z M 6.96875 -1.46875 "/></g></g></g><g fill="#2a7005" fill-opacity="1"><g transform="translate(535.440102, 38.619134)"><g><path d="M 11.09375 -1.96875 C 10.101562 -0.53125 8.648438 0.1875 6.734375 0.1875 C 4.972656 0.1875 3.539062 -0.421875 2.4375 -1.640625 C 1.363281 -2.835938 0.828125 -4.320312 0.828125 -6.09375 C 0.828125 -7.863281 1.363281 -9.347656 2.4375 -10.546875 C 3.539062 -11.765625 5.015625 -12.375 6.859375 -12.375 C 8.703125 -12.375 10.113281 -11.660156 11.09375 -10.234375 L 11.09375 -12.1875 L 12.921875 -12.1875 L 12.921875 4.828125 L 11.09375 4.828125 Z M 6.96875 -10.71875 C 5.664062 -10.71875 4.609375 -10.265625 3.796875 -9.359375 C 3.035156 -8.492188 2.65625 -7.40625 2.65625 -6.09375 C 2.65625 -4.78125 3.035156 -3.691406 3.796875 -2.828125 C 4.609375 -1.921875 5.664062 -1.46875 6.96875 -1.46875 C 8.289062 -1.46875 9.332031 -1.921875 10.09375 -2.828125 C 10.820312 -3.691406 11.1875 -4.78125 11.1875 -6.09375 C 11.1875 -7.40625 10.820312 -8.492188 10.09375 -9.359375 C 9.332031 -10.265625 8.289062 -10.71875 6.96875 -10.71875 Z M 6.96875 -10.71875 "/></g></g></g><g fill="#2a7005" fill-opacity="1"><g transform="translate(549.944545, 38.619134)"><g><path d="M 9.1875 -9.71875 L 6.140625 0 L 4.046875 0 L 0.21875 -12.1875 L 2.171875 -12.1875 L 5.09375 -2.265625 L 8.1875 -12.1875 L 10.1875 -12.1875 L 13.28125 -2.265625 L 16.203125 -12.1875 L 18.15625 -12.1875 L 14.328125 0 L 12.234375 0 Z M 9.1875 -9.71875 "/></g></g></g><g fill="#2a7005" fill-opacity="1"><g transform="translate(568.324989, 38.619134)"><g><path d="M 11.09375 -1.953125 C 10.113281 -0.523438 8.660156 0.1875 6.734375 0.1875 C 4.972656 0.1875 3.539062 -0.421875 2.4375 -1.640625 C 1.363281 -2.835938 0.828125 -4.320312 0.828125 -6.09375 C 0.828125 -7.863281 1.363281 -9.347656 2.4375 -10.546875 C 3.539062 -11.765625 5.007812 -12.375 6.84375 -12.375 C 8.6875 -12.375 10.101562 -11.65625 11.09375 -10.21875 L 11.09375 -12.1875 L 12.921875 -12.1875 L 12.921875 0 L 11.09375 0 Z M 6.96875 -1.46875 C 8.289062 -1.46875 9.332031 -1.921875 10.09375 -2.828125 C 10.820312 -3.691406 11.1875 -4.78125 11.1875 -6.09375 C 11.1875 -7.40625 10.820312 -8.492188 10.09375 -9.359375 C 9.332031 -10.265625 8.289062 -10.71875 6.96875 -10.71875 C 5.664062 -10.71875 4.609375 -10.265625 3.796875 -9.359375 C 3.035156 -8.492188 2.65625 -7.40625 2.65625 -6.09375 C 2.65625 -4.78125 3.035156 -3.691406 3.796875 -2.828125 C 4.609375 -1.921875 5.664062 -1.46875 6.96875 -1.46875 Z M 6.96875 -1.46875 "/></g></g></g><g fill="#2a7005" fill-opacity="1"><g transform="translate(582.829432, 38.619134)"><g><path d="M 1.6875 -1.953125 L 4.078125 -1.953125 L 1.921875 3.234375 L 0.265625 3.234375 Z M 1.6875 -1.953125 "/></g></g></g><g fill="#2a7005" fill-opacity="1"><g transform="translate(588.192432, 38.619134)"><g/></g></g><g fill="#2a7005" fill-opacity="1"><g transform="translate(593.384794, 38.619134)"><g><path d="M 3.40625 -10.21875 C 4.40625 -11.65625 5.863281 -12.375 7.78125 -12.375 C 9.53125 -12.375 10.953125 -11.765625 12.046875 -10.546875 C 13.128906 -9.347656 13.671875 -7.863281 13.671875 -6.09375 C 13.671875 -4.320312 13.128906 -2.835938 12.046875 -1.640625 C 10.953125 -0.421875 9.484375 0.1875 7.640625 0.1875 C 5.796875 0.1875 4.382812 -0.523438 3.40625 -1.953125 L 3.40625 0 L 1.578125 0 L 1.578125 -17.0625 L 3.40625 -17.0625 Z M 7.53125 -1.46875 C 8.832031 -1.46875 9.890625 -1.921875 10.703125 -2.828125 C 11.460938 -3.691406 11.84375 -4.78125 11.84375 -6.09375 C 11.84375 -7.40625 11.460938 -8.492188 10.703125 -9.359375 C 9.890625 -10.265625 8.832031 -10.71875 7.53125 -10.71875 C 6.21875 -10.71875 5.175781 -10.265625 4.40625 -9.359375 C 3.675781 -8.492188 3.3125 -7.40625 3.3125 -6.09375 C 3.3125 -4.78125 3.675781 -3.691406 4.40625 -2.828125 C 5.175781 -1.921875 6.21875 -1.46875 7.53125 -1.46875 Z M 7.53125 -1.46875 "/></g></g></g><g fill="#2a7005" fill-opacity="1"><g transform="translate(607.864891, 38.619134)"><g><path d="M 7.015625 -1.46875 C 8.660156 -1.46875 9.835938 -2.148438 10.546875 -3.515625 L 12.546875 -3.515625 C 12.128906 -2.410156 11.460938 -1.515625 10.546875 -0.828125 C 9.628906 -0.148438 8.445312 0.1875 7 0.1875 C 5.15625 0.1875 3.660156 -0.421875 2.515625 -1.640625 C 1.390625 -2.816406 0.828125 -4.300781 0.828125 -6.09375 C 0.828125 -7.894531 1.363281 -9.378906 2.4375 -10.546875 C 3.570312 -11.765625 5.050781 -12.375 6.875 -12.375 C 8.695312 -12.375 10.175781 -11.765625 11.3125 -10.546875 C 12.382812 -9.378906 12.921875 -7.894531 12.921875 -6.09375 L 12.921875 -5.359375 L 2.703125 -5.359375 C 2.835938 -4.242188 3.285156 -3.316406 4.046875 -2.578125 C 4.828125 -1.835938 5.816406 -1.46875 7.015625 -1.46875 Z M 6.875 -10.71875 C 5.75 -10.71875 4.804688 -10.367188 4.046875 -9.671875 C 3.328125 -9.003906 2.890625 -8.132812 2.734375 -7.0625 L 11.015625 -7.0625 C 10.859375 -8.132812 10.421875 -9.003906 9.703125 -9.671875 C 8.941406 -10.367188 8 -10.71875 6.875 -10.71875 Z M 6.875 -10.71875 "/></g></g></g><g fill="#2a7005" fill-opacity="1"><g transform="translate(621.443026, 38.619134)"><g><path d="M 8.015625 -12.375 L 8.015625 -10.546875 L 7.796875 -10.546875 C 6.484375 -10.546875 5.410156 -10.019531 4.578125 -8.96875 C 3.796875 -7.957031 3.40625 -6.753906 3.40625 -5.359375 L 3.40625 0 L 1.578125 0 L 1.578125 -12.1875 L 3.40625 -12.1875 L 3.40625 -9.1875 C 3.800781 -10.457031 4.648438 -11.394531 5.953125 -12 C 6.484375 -12.25 7.128906 -12.375 7.890625 -12.375 Z M 8.015625 -12.375 "/></g></g></g><g fill="#2a7005" fill-opacity="1"><g transform="translate(629.853187, 38.619134)"><g><path d="M 6.953125 -7.390625 L 12.21875 0 L 9.96875 0 L 5.703125 -6.125 L 3.40625 -3.84375 L 3.40625 0 L 1.578125 0 L 1.578125 -17.0625 L 3.40625 -17.0625 L 3.40625 -6.140625 L 9.28125 -12.1875 L 11.84375 -12.1875 Z M 6.953125 -7.390625 "/></g></g></g><g fill="#2a7005" fill-opacity="1"><g transform="translate(642.090572, 38.619134)"><g><path d="M 11.09375 -1.953125 C 10.113281 -0.523438 8.660156 0.1875 6.734375 0.1875 C 4.972656 0.1875 3.539062 -0.421875 2.4375 -1.640625 C 1.363281 -2.835938 0.828125 -4.320312 0.828125 -6.09375 C 0.828125 -7.863281 1.363281 -9.347656 2.4375 -10.546875 C 3.539062 -11.765625 5.007812 -12.375 6.84375 -12.375 C 8.6875 -12.375 10.101562 -11.65625 11.09375 -10.21875 L 11.09375 -12.1875 L 12.921875 -12.1875 L 12.921875 0 L 11.09375 0 Z M 6.96875 -1.46875 C 8.289062 -1.46875 9.332031 -1.921875 10.09375 -2.828125 C 10.820312 -3.691406 11.1875 -4.78125 11.1875 -6.09375 C 11.1875 -7.40625 10.820312 -8.492188 10.09375 -9.359375 C 9.332031 -10.265625 8.289062 -10.71875 6.96875 -10.71875 C 5.664062 -10.71875 4.609375 -10.265625 3.796875 -9.359375 C 3.035156 -8.492188 2.65625 -7.40625 2.65625 -6.09375 C 2.65625 -4.78125 3.035156 -3.691406 3.796875 -2.828125 C 4.609375 -1.921875 5.664062 -1.46875 6.96875 -1.46875 Z M 6.96875 -1.46875 "/></g></g></g><g fill="#2a7005" fill-opacity="1"><g transform="translate(656.595015, 38.619134)"><g><path d="M 8.015625 -12.375 L 8.015625 -10.546875 L 7.796875 -10.546875 C 6.484375 -10.546875 5.410156 -10.019531 4.578125 -8.96875 C 3.796875 -7.957031 3.40625 -6.753906 3.40625 -5.359375 L 3.40625 0 L 1.578125 0 L 1.578125 -12.1875 L 3.40625 -12.1875 L 3.40625 -9.1875 C 3.800781 -10.457031 4.648438 -11.394531 5.953125 -12 C 6.484375 -12.25 7.128906 -12.375 7.890625 -12.375 Z M 8.015625 -12.375 "/></g></g></g><g fill="#2a7005" fill-opacity="1"><g transform="translate(665.005177, 38.619134)"><g><path d="M 11.09375 -1.953125 C 10.113281 -0.523438 8.660156 0.1875 6.734375 0.1875 C 4.972656 0.1875 3.539062 -0.421875 2.4375 -1.640625 C 1.363281 -2.835938 0.828125 -4.320312 0.828125 -6.09375 C 0.828125 -7.863281 1.363281 -9.347656 2.4375 -10.546875 C 3.539062 -11.765625 5.007812 -12.375 6.84375 -12.375 C 8.6875 -12.375 10.101562 -11.65625 11.09375 -10.21875 L 11.09375 -12.1875 L 12.921875 -12.1875 L 12.921875 0 L 11.09375 0 Z M 6.96875 -1.46875 C 8.289062 -1.46875 9.332031 -1.921875 10.09375 -2.828125 C 10.820312 -3.691406 11.1875 -4.78125 11.1875 -6.09375 C 11.1875 -7.40625 10.820312 -8.492188 10.09375 -9.359375 C 9.332031 -10.265625 8.289062 -10.71875 6.96875 -10.71875 C 5.664062 -10.71875 4.609375 -10.265625 3.796875 -9.359375 C 3.035156 -8.492188 2.65625 -7.40625 2.65625 -6.09375 C 2.65625 -4.78125 3.035156 -3.691406 3.796875 -2.828125 C 4.609375 -1.921875 5.664062 -1.46875 6.96875 -1.46875 Z M 6.96875 -1.46875 "/></g></g></g><g fill="#2a7005" fill-opacity="1"><g transform="translate(679.50962, 38.619134)"><g><path d="M 6.953125 -7.390625 L 12.21875 0 L 9.96875 0 L 5.703125 -6.125 L 3.40625 -3.84375 L 3.40625 0 L 1.578125 0 L 1.578125 -17.0625 L 3.40625 -17.0625 L 3.40625 -6.140625 L 9.28125 -12.1875 L 11.84375 -12.1875 Z M 6.953125 -7.390625 "/></g></g></g><g fill="#2a7005" fill-opacity="1"><g transform="translate(691.747004, 38.619134)"><g><path d="M 2.90625 0 L 2.90625 -10.578125 L 0.421875 -10.578125 L 0.421875 -12.1875 L 2.90625 -12.1875 L 2.90625 -16.546875 L 4.734375 -16.546875 L 4.734375 -12.1875 L 7.53125 -12.1875 L 7.53125 -10.578125 L 4.734375 -10.578125 L 4.734375 0 Z M 2.90625 0 "/></g></g></g><g fill="#2a7005" fill-opacity="1"><g transform="translate(699.69399, 38.619134)"><g><path d="M 7.015625 -1.46875 C 8.660156 -1.46875 9.835938 -2.148438 10.546875 -3.515625 L 12.546875 -3.515625 C 12.128906 -2.410156 11.460938 -1.515625 10.546875 -0.828125 C 9.628906 -0.148438 8.445312 0.1875 7 0.1875 C 5.15625 0.1875 3.660156 -0.421875 2.515625 -1.640625 C 1.390625 -2.816406 0.828125 -4.300781 0.828125 -6.09375 C 0.828125 -7.894531 1.363281 -9.378906 2.4375 -10.546875 C 3.570312 -11.765625 5.050781 -12.375 6.875 -12.375 C 8.695312 -12.375 10.175781 -11.765625 11.3125 -10.546875 C 12.382812 -9.378906 12.921875 -7.894531 12.921875 -6.09375 L 12.921875 -5.359375 L 2.703125 -5.359375 C 2.835938 -4.242188 3.285156 -3.316406 4.046875 -2.578125 C 4.828125 -1.835938 5.816406 -1.46875 7.015625 -1.46875 Z M 6.875 -10.71875 C 5.75 -10.71875 4.804688 -10.367188 4.046875 -9.671875 C 3.328125 -9.003906 2.890625 -8.132812 2.734375 -7.0625 L 11.015625 -7.0625 C 10.859375 -8.132812 10.421875 -9.003906 9.703125 -9.671875 C 8.941406 -10.367188 8 -10.71875 6.875 -10.71875 Z M 6.875 -10.71875 "/></g></g></g><g fill="#2a7005" fill-opacity="1"><g transform="translate(713.272124, 38.619134)"><g><path d="M 8.015625 -12.375 L 8.015625 -10.546875 L 7.796875 -10.546875 C 6.484375 -10.546875 5.410156 -10.019531 4.578125 -8.96875 C 3.796875 -7.957031 3.40625 -6.753906 3.40625 -5.359375 L 3.40625 0 L 1.578125 0 L 1.578125 -12.1875 L 3.40625 -12.1875 L 3.40625 -9.1875 C 3.800781 -10.457031 4.648438 -11.394531 5.953125 -12 C 6.484375 -12.25 7.128906 -12.375 7.890625 -12.375 Z M 8.015625 -12.375 "/></g></g></g><g fill="#2a7005" fill-opacity="1"><g transform="translate(721.682286, 38.619134)"><g><path d="M 1.6875 -1.953125 L 4.078125 -1.953125 L 1.921875 3.234375 L 0.265625 3.234375 Z M 1.6875 -1.953125 "/></g></g></g><g fill="#2a7005" fill-opacity="1"><g transform="translate(727.045285, 38.619134)"><g/></g></g><g fill="#2a7005" fill-opacity="1"><g transform="translate(732.237647, 38.619134)"><g><path d="M 7.21875 -1.46875 C 8 -1.46875 8.6875 -1.6875 9.28125 -2.125 C 9.882812 -2.5625 10.328125 -3.128906 10.609375 -3.828125 L 12.578125 -3.828125 C 12.203125 -2.617188 11.519531 -1.648438 10.53125 -0.921875 C 9.488281 -0.179688 8.253906 0.1875 6.828125 0.1875 C 5.035156 0.1875 3.582031 -0.421875 2.46875 -1.640625 C 1.375 -2.816406 0.828125 -4.300781 0.828125 -6.09375 C 0.828125 -7.882812 1.375 -9.367188 2.46875 -10.546875 C 3.582031 -11.765625 5.035156 -12.375 6.828125 -12.375 C 8.253906 -12.375 9.488281 -12.003906 10.53125 -11.265625 C 11.519531 -10.535156 12.203125 -9.566406 12.578125 -8.359375 L 10.609375 -8.359375 C 10.328125 -9.054688 9.882812 -9.625 9.28125 -10.0625 C 8.6875 -10.5 8 -10.71875 7.21875 -10.71875 C 6.4375 -10.71875 5.769531 -10.597656 5.21875 -10.359375 C 4.675781 -10.117188 4.21875 -9.785156 3.84375 -9.359375 C 3.050781 -8.484375 2.65625 -7.394531 2.65625 -6.09375 C 2.65625 -4.789062 3.050781 -3.703125 3.84375 -2.828125 C 4.65625 -1.921875 5.78125 -1.46875 7.21875 -1.46875 Z M 7.21875 -1.46875 "/></g></g></g><g fill="#2a7005" fill-opacity="1"><g transform="translate(745.498853, 38.619134)"><g><path d="M 7.015625 -1.46875 C 8.660156 -1.46875 9.835938 -2.148438 10.546875 -3.515625 L 12.546875 -3.515625 C 12.128906 -2.410156 11.460938 -1.515625 10.546875 -0.828125 C 9.628906 -0.148438 8.445312 0.1875 7 0.1875 C 5.15625 0.1875 3.660156 -0.421875 2.515625 -1.640625 C 1.390625 -2.816406 0.828125 -4.300781 0.828125 -6.09375 C 0.828125 -7.894531 1.363281 -9.378906 2.4375 -10.546875 C 3.570312 -11.765625 5.050781 -12.375 6.875 -12.375 C 8.695312 -12.375 10.175781 -11.765625 11.3125 -10.546875 C 12.382812 -9.378906 12.921875 -7.894531 12.921875 -6.09375 L 12.921875 -5.359375 L 2.703125 -5.359375 C 2.835938 -4.242188 3.285156 -3.316406 4.046875 -2.578125 C 4.828125 -1.835938 5.816406 -1.46875 7.015625 -1.46875 Z M 6.875 -10.71875 C 5.75 -10.71875 4.804688 -10.367188 4.046875 -9.671875 C 3.328125 -9.003906 2.890625 -8.132812 2.734375 -7.0625 L 11.015625 -7.0625 C 10.859375 -8.132812 10.421875 -9.003906 9.703125 -9.671875 C 8.941406 -10.367188 8 -10.71875 6.875 -10.71875 Z M 6.875 -10.71875 "/></g></g></g><g fill="#2a7005" fill-opacity="1"><g transform="translate(759.076988, 38.619134)"><g><path d="M 8.015625 -12.375 L 8.015625 -10.546875 L 7.796875 -10.546875 C 6.484375 -10.546875 5.410156 -10.019531 4.578125 -8.96875 C 3.796875 -7.957031 3.40625 -6.753906 3.40625 -5.359375 L 3.40625 0 L 1.578125 0 L 1.578125 -12.1875 L 3.40625 -12.1875 L 3.40625 -9.1875 C 3.800781 -10.457031 4.648438 -11.394531 5.953125 -12 C 6.484375 -12.25 7.128906 -12.375 7.890625 -12.375 Z M 8.015625 -12.375 "/></g></g></g><g fill="#2a7005" fill-opacity="1"><g transform="translate(767.48715, 38.619134)"><g><path d="M 11.09375 -1.953125 C 10.113281 -0.523438 8.660156 0.1875 6.734375 0.1875 C 4.972656 0.1875 3.539062 -0.421875 2.4375 -1.640625 C 1.363281 -2.835938 0.828125 -4.320312 0.828125 -6.09375 C 0.828125 -7.863281 1.363281 -9.347656 2.4375 -10.546875 C 3.539062 -11.765625 5.007812 -12.375 6.84375 -12.375 C 8.6875 -12.375 10.101562 -11.65625 11.09375 -10.21875 L 11.09375 -17.0625 L 12.921875 -17.0625 L 12.921875 0 L 11.09375 0 Z M 6.96875 -1.46875 C 8.289062 -1.46875 9.332031 -1.921875 10.09375 -2.828125 C 10.820312 -3.691406 11.1875 -4.78125 11.1875 -6.09375 C 11.1875 -7.40625 10.820312 -8.492188 10.09375 -9.359375 C 9.332031 -10.265625 8.289062 -10.71875 6.96875 -10.71875 C 5.664062 -10.71875 4.609375 -10.265625 3.796875 -9.359375 C 3.035156 -8.492188 2.65625 -7.40625 2.65625 -6.09375 C 2.65625 -4.78125 3.035156 -3.691406 3.796875 -2.828125 C 4.609375 -1.921875 5.664062 -1.46875 6.96875 -1.46875 Z M 6.96875 -1.46875 "/></g></g></g><g fill="#2a7005" fill-opacity="1"><g transform="translate(781.991637, 38.619134)"><g><path d="M 11.09375 -1.953125 C 10.113281 -0.523438 8.660156 0.1875 6.734375 0.1875 C 4.972656 0.1875 3.539062 -0.421875 2.4375 -1.640625 C 1.363281 -2.835938 0.828125 -4.320312 0.828125 -6.09375 C 0.828125 -7.863281 1.363281 -9.347656 2.4375 -10.546875 C 3.539062 -11.765625 5.007812 -12.375 6.84375 -12.375 C 8.6875 -12.375 10.101562 -11.65625 11.09375 -10.21875 L 11.09375 -12.1875 L 12.921875 -12.1875 L 12.921875 0 L 11.09375 0 Z M 6.96875 -1.46875 C 8.289062 -1.46875 9.332031 -1.921875 10.09375 -2.828125 C 10.820312 -3.691406 11.1875 -4.78125 11.1875 -6.09375 C 11.1875 -7.40625 10.820312 -8.492188 10.09375 -9.359375 C 9.332031 -10.265625 8.289062 -10.71875 6.96875 -10.71875 C 5.664062 -10.71875 4.609375 -10.265625 3.796875 -9.359375 C 3.035156 -8.492188 2.65625 -7.40625 2.65625 -6.09375 C 2.65625 -4.78125 3.035156 -3.691406 3.796875 -2.828125 C 4.609375 -1.921875 5.664062 -1.46875 6.96875 -1.46875 Z M 6.96875 -1.46875 "/></g></g></g><g fill="#2a7005" fill-opacity="1"><g transform="translate(796.496124, 38.619134)"><g><path d="M 8.75 -8.921875 C 8.582031 -10.191406 7.5625 -10.828125 5.6875 -10.828125 C 3.8125 -10.828125 2.875 -10.238281 2.875 -9.0625 C 2.875 -8.582031 3.070312 -8.210938 3.46875 -7.953125 C 3.875 -7.703125 4.375 -7.492188 4.96875 -7.328125 C 5.570312 -7.171875 6.226562 -7.019531 6.9375 -6.875 C 7.644531 -6.738281 8.296875 -6.546875 8.890625 -6.296875 C 9.492188 -6.046875 9.992188 -5.703125 10.390625 -5.265625 C 10.796875 -4.828125 11 -4.226562 11 -3.46875 C 11 -2.28125 10.550781 -1.375 9.65625 -0.75 C 8.757812 -0.125 7.546875 0.1875 6.015625 0.1875 C 4.390625 0.1875 3.097656 -0.21875 2.140625 -1.03125 C 1.265625 -1.738281 0.796875 -2.671875 0.734375 -3.828125 L 2.625 -3.828125 C 2.738281 -2.703125 3.375 -1.945312 4.53125 -1.5625 C 4.957031 -1.425781 5.375 -1.359375 5.78125 -1.359375 C 6.195312 -1.359375 6.582031 -1.382812 6.9375 -1.4375 C 7.300781 -1.488281 7.65625 -1.578125 8 -1.703125 C 8.78125 -2.015625 9.171875 -2.546875 9.171875 -3.296875 C 9.171875 -3.796875 8.96875 -4.175781 8.5625 -4.4375 C 8.164062 -4.707031 7.664062 -4.925781 7.0625 -5.09375 C 6.46875 -5.269531 5.816406 -5.425781 5.109375 -5.5625 C 4.398438 -5.707031 3.742188 -5.898438 3.140625 -6.140625 C 2.546875 -6.390625 2.046875 -6.722656 1.640625 -7.140625 C 1.242188 -7.566406 1.046875 -8.148438 1.046875 -8.890625 C 1.046875 -9.992188 1.445312 -10.847656 2.25 -11.453125 C 3.0625 -12.066406 4.253906 -12.375 5.828125 -12.375 C 7.316406 -12.375 8.492188 -12.019531 9.359375 -11.3125 C 10.078125 -10.707031 10.492188 -9.910156 10.609375 -8.921875 Z M 8.75 -8.921875 "/></g></g></g><g fill="#2a7005" fill-opacity="1"><g transform="translate(808.245943, 38.619134)"><g/></g></g><g fill="#2a7005" fill-opacity="1"><g transform="translate(813.438305, 38.619134)"><g><path d="M 11.09375 -1.953125 C 10.113281 -0.523438 8.660156 0.1875 6.734375 0.1875 C 4.972656 0.1875 3.539062 -0.421875 2.4375 -1.640625 C 1.363281 -2.835938 0.828125 -4.320312 0.828125 -6.09375 C 0.828125 -7.863281 1.363281 -9.347656 2.4375 -10.546875 C 3.539062 -11.765625 5.007812 -12.375 6.84375 -12.375 C 8.6875 -12.375 10.101562 -11.65625 11.09375 -10.21875 L 11.09375 -17.0625 L 12.921875 -17.0625 L 12.921875 0 L 11.09375 0 Z M 6.96875 -1.46875 C 8.289062 -1.46875 9.332031 -1.921875 10.09375 -2.828125 C 10.820312 -3.691406 11.1875 -4.78125 11.1875 -6.09375 C 11.1875 -7.40625 10.820312 -8.492188 10.09375 -9.359375 C 9.332031 -10.265625 8.289062 -10.71875 6.96875 -10.71875 C 5.664062 -10.71875 4.609375 -10.265625 3.796875 -9.359375 C 3.035156 -8.492188 2.65625 -7.40625 2.65625 -6.09375 C 2.65625 -4.78125 3.035156 -3.691406 3.796875 -2.828125 C 4.609375 -1.921875 5.664062 -1.46875 6.96875 -1.46875 Z M 6.96875 -1.46875 "/></g></g></g><g fill="#2a7005" fill-opacity="1"><g transform="translate(827.942792, 38.619134)"><g><path d="M 11.09375 -1.953125 C 10.113281 -0.523438 8.660156 0.1875 6.734375 0.1875 C 4.972656 0.1875 3.539062 -0.421875 2.4375 -1.640625 C 1.363281 -2.835938 0.828125 -4.320312 0.828125 -6.09375 C 0.828125 -7.863281 1.363281 -9.347656 2.4375 -10.546875 C 3.539062 -11.765625 5.007812 -12.375 6.84375 -12.375 C 8.6875 -12.375 10.101562 -11.65625 11.09375 -10.21875 L 11.09375 -12.1875 L 12.921875 -12.1875 L 12.921875 0 L 11.09375 0 Z M 6.96875 -1.46875 C 8.289062 -1.46875 9.332031 -1.921875 10.09375 -2.828125 C 10.820312 -3.691406 11.1875 -4.78125 11.1875 -6.09375 C 11.1875 -7.40625 10.820312 -8.492188 10.09375 -9.359375 C 9.332031 -10.265625 8.289062 -10.71875 6.96875 -10.71875 C 5.664062 -10.71875 4.609375 -10.265625 3.796875 -9.359375 C 3.035156 -8.492188 2.65625 -7.40625 2.65625 -6.09375 C 2.65625 -4.78125 3.035156 -3.691406 3.796875 -2.828125 C 4.609375 -1.921875 5.664062 -1.46875 6.96875 -1.46875 Z M 6.96875 -1.46875 "/></g></g></g><g fill="#2a7005" fill-opacity="1"><g transform="translate(842.447279, 38.619134)"><g><path d="M 3.40625 -12.1875 L 3.40625 -10.28125 C 3.851562 -10.863281 4.390625 -11.359375 5.015625 -11.765625 C 5.648438 -12.171875 6.375 -12.375 7.1875 -12.375 C 8 -12.375 8.695312 -12.257812 9.28125 -12.03125 C 9.875 -11.8125 10.390625 -11.472656 10.828125 -11.015625 C 11.828125 -10.023438 12.328125 -8.71875 12.328125 -7.09375 L 12.328125 0 L 10.5 0 L 10.5 -7.046875 C 10.5 -8.160156 10.179688 -9.050781 9.546875 -9.71875 C 8.921875 -10.382812 8.101562 -10.71875 7.09375 -10.71875 C 6.070312 -10.71875 5.203125 -10.378906 4.484375 -9.703125 C 3.765625 -9.003906 3.40625 -8.109375 3.40625 -7.015625 L 3.40625 0 L 1.578125 0 L 1.578125 -12.1875 Z M 3.40625 -12.1875 "/></g></g></g><g fill="#2a7005" fill-opacity="1"><g transform="translate(856.244829, 38.619134)"><g/></g></g><g fill="#2a7005" fill-opacity="1"><g transform="translate(861.437191, 38.619134)"><g><path d="M 2.90625 0 L 2.90625 -10.578125 L 0.421875 -10.578125 L 0.421875 -12.1875 L 2.90625 -12.1875 L 2.90625 -16.546875 L 4.734375 -16.546875 L 4.734375 -12.1875 L 7.53125 -12.1875 L 7.53125 -10.578125 L 4.734375 -10.578125 L 4.734375 0 Z M 2.90625 0 "/></g></g></g><g fill="#2a7005" fill-opacity="1"><g transform="translate(869.384133, 38.619134)"><g><path d="M 7.015625 -1.46875 C 8.660156 -1.46875 9.835938 -2.148438 10.546875 -3.515625 L 12.546875 -3.515625 C 12.128906 -2.410156 11.460938 -1.515625 10.546875 -0.828125 C 9.628906 -0.148438 8.445312 0.1875 7 0.1875 C 5.15625 0.1875 3.660156 -0.421875 2.515625 -1.640625 C 1.390625 -2.816406 0.828125 -4.300781 0.828125 -6.09375 C 0.828125 -7.894531 1.363281 -9.378906 2.4375 -10.546875 C 3.570312 -11.765625 5.050781 -12.375 6.875 -12.375 C 8.695312 -12.375 10.175781 -11.765625 11.3125 -10.546875 C 12.382812 -9.378906 12.921875 -7.894531 12.921875 -6.09375 L 12.921875 -5.359375 L 2.703125 -5.359375 C 2.835938 -4.242188 3.285156 -3.316406 4.046875 -2.578125 C 4.828125 -1.835938 5.816406 -1.46875 7.015625 -1.46875 Z M 6.875 -10.71875 C 5.75 -10.71875 4.804688 -10.367188 4.046875 -9.671875 C 3.328125 -9.003906 2.890625 -8.132812 2.734375 -7.0625 L 11.015625 -7.0625 C 10.859375 -8.132812 10.421875 -9.003906 9.703125 -9.671875 C 8.941406 -10.367188 8 -10.71875 6.875 -10.71875 Z M 6.875 -10.71875 "/></g></g></g><g fill="#2a7005" fill-opacity="1"><g transform="translate(882.962268, 38.619134)"><g><path d="M 8.015625 -12.375 L 8.015625 -10.546875 L 7.796875 -10.546875 C 6.484375 -10.546875 5.410156 -10.019531 4.578125 -8.96875 C 3.796875 -7.957031 3.40625 -6.753906 3.40625 -5.359375 L 3.40625 0 L 1.578125 0 L 1.578125 -12.1875 L 3.40625 -12.1875 L 3.40625 -9.1875 C 3.800781 -10.457031 4.648438 -11.394531 5.953125 -12 C 6.484375 -12.25 7.128906 -12.375 7.890625 -12.375 Z M 8.015625 -12.375 "/></g></g></g><g fill="#2a7005" fill-opacity="1"><g transform="translate(891.372429, 38.619134)"><g><path d="M 11.09375 -1.953125 C 10.113281 -0.523438 8.660156 0.1875 6.734375 0.1875 C 4.972656 0.1875 3.539062 -0.421875 2.4375 -1.640625 C 1.363281 -2.835938 0.828125 -4.320312 0.828125 -6.09375 C 0.828125 -7.863281 1.363281 -9.347656 2.4375 -10.546875 C 3.539062 -11.765625 5.007812 -12.375 6.84375 -12.375 C 8.6875 -12.375 10.101562 -11.65625 11.09375 -10.21875 L 11.09375 -12.1875 L 12.921875 -12.1875 L 12.921875 0 L 11.09375 0 Z M 6.96875 -1.46875 C 8.289062 -1.46875 9.332031 -1.921875 10.09375 -2.828125 C 10.820312 -3.691406 11.1875 -4.78125 11.1875 -6.09375 C 11.1875 -7.40625 10.820312 -8.492188 10.09375 -9.359375 C 9.332031 -10.265625 8.289062 -10.71875 6.96875 -10.71875 C 5.664062 -10.71875 4.609375 -10.265625 3.796875 -9.359375 C 3.035156 -8.492188 2.65625 -7.40625 2.65625 -6.09375 C 2.65625 -4.78125 3.035156 -3.691406 3.796875 -2.828125 C 4.609375 -1.921875 5.664062 -1.46875 6.96875 -1.46875 Z M 6.96875 -1.46875 "/></g></g></g><g fill="#2a7005" fill-opacity="1"><g transform="translate(905.876916, 38.619134)"><g><path d="M 3.40625 -10.328125 C 4.21875 -11.691406 5.457031 -12.375 7.125 -12.375 C 7.9375 -12.375 8.6875 -12.160156 9.375 -11.734375 C 10.0625 -11.304688 10.601562 -10.703125 11 -9.921875 C 11.550781 -10.941406 12.410156 -11.671875 13.578125 -12.109375 C 14.046875 -12.285156 14.578125 -12.375 15.171875 -12.375 C 15.765625 -12.375 16.332031 -12.253906 16.875 -12.015625 C 17.425781 -11.785156 17.910156 -11.453125 18.328125 -11.015625 C 19.234375 -10.046875 19.6875 -8.828125 19.6875 -7.359375 L 19.6875 0 L 17.859375 0 L 17.859375 -7.3125 C 17.859375 -8.320312 17.578125 -9.148438 17.015625 -9.796875 C 16.441406 -10.410156 15.71875 -10.71875 14.84375 -10.71875 C 13.914062 -10.71875 13.144531 -10.421875 12.53125 -9.828125 C 11.875 -9.203125 11.546875 -8.351562 11.546875 -7.28125 L 11.546875 0 L 9.71875 0 L 9.71875 -7.3125 C 9.71875 -8.320312 9.4375 -9.148438 8.875 -9.796875 C 8.300781 -10.410156 7.578125 -10.71875 6.703125 -10.71875 C 5.773438 -10.71875 5.003906 -10.421875 4.390625 -9.828125 C 3.734375 -9.203125 3.40625 -8.351562 3.40625 -7.28125 L 3.40625 0 L 1.578125 0 L 1.578125 -12.1875 L 3.40625 -12.1875 Z M 3.40625 -10.328125 "/></g></g></g><g fill="#2a7005" fill-opacity="1"><g transform="translate(927.036329, 38.619134)"><g><path d="M 3.40625 -10.234375 C 4.382812 -11.660156 5.84375 -12.375 7.78125 -12.375 C 9.53125 -12.375 10.953125 -11.765625 12.046875 -10.546875 C 13.128906 -9.347656 13.671875 -7.863281 13.671875 -6.09375 C 13.671875 -4.320312 13.128906 -2.835938 12.046875 -1.640625 C 10.953125 -0.421875 9.488281 0.1875 7.65625 0.1875 C 5.820312 0.1875 4.40625 -0.53125 3.40625 -1.96875 L 3.40625 4.828125 L 1.578125 4.828125 L 1.578125 -12.1875 L 3.40625 -12.1875 Z M 7.53125 -10.71875 C 6.21875 -10.71875 5.175781 -10.265625 4.40625 -9.359375 C 3.675781 -8.492188 3.3125 -7.40625 3.3125 -6.09375 C 3.3125 -4.78125 3.675781 -3.691406 4.40625 -2.828125 C 5.175781 -1.921875 6.21875 -1.46875 7.53125 -1.46875 C 8.832031 -1.46875 9.890625 -1.921875 10.703125 -2.828125 C 11.460938 -3.691406 11.84375 -4.78125 11.84375 -6.09375 C 11.84375 -7.40625 11.460938 -8.492188 10.703125 -9.359375 C 9.890625 -10.265625 8.832031 -10.71875 7.53125 -10.71875 Z M 7.53125 -10.71875 "/></g></g></g><g fill="#2a7005" fill-opacity="1"><g transform="translate(941.516426, 38.619134)"><g><path d="M 1.578125 -12.1875 L 3.40625 -12.1875 L 3.40625 0 L 1.578125 0 Z M 3.484375 -16.625 L 3.484375 -14.234375 L 1.515625 -14.234375 L 1.515625 -16.625 Z M 3.484375 -16.625 "/></g></g></g><g fill="#2a7005" fill-opacity="1"><g transform="translate(946.513763, 38.619134)"><g><path d="M 3.40625 0 L 1.578125 0 L 1.578125 -17.0625 L 3.40625 -17.0625 Z M 3.40625 0 "/></g></g></g><g fill="#2a7005" fill-opacity="1"><g transform="translate(951.511099, 38.619134)"><g><path d="M 3.65625 -2.484375 L 3.65625 0 L 1.296875 0 L 1.296875 -2.484375 Z M 3.65625 -2.484375 "/></g></g></g></svg>